<?xml version="1.0" encoding="UTF-8"?> <svg xmlns="http://www.w3.org/2000/svg" width="252" height="74" viewBox="0 0 252 74" fill="none"><g clip-path="url(#clip0_3820_7710)"><path d="M47.4611 58.9258H54.7664V60.2606H51.8939V67.764H50.3144V60.2606H47.4547V58.9258H47.4611ZM54.4543 61.3646H55.8045V62.5995H55.83C55.8746 62.4249 55.9574 62.2565 56.0784 62.0943C56.1994 61.9322 56.3459 61.7762 56.5178 61.6452C56.6898 61.508 56.8809 61.402 57.0911 61.3147C57.3012 61.2336 57.5178 61.1899 57.7343 61.1899C57.8999 61.1899 58.0209 61.1962 58.0846 61.2024C58.1483 61.2086 58.212 61.2211 58.2821 61.2273V62.5871C58.1802 62.5684 58.0783 62.5559 57.97 62.5434C57.8617 62.5309 57.7598 62.5247 57.6579 62.5247C57.4159 62.5247 57.1866 62.5746 56.9701 62.6682C56.7535 62.7617 56.5688 62.9052 56.4096 63.0861C56.2504 63.2732 56.123 63.4977 56.0274 63.7722C55.9319 64.0466 55.8873 64.3585 55.8873 64.714V67.7578H54.4479V61.3646H54.4543ZM64.8995 67.764H63.4856V66.8721H63.4601C63.2818 67.1964 63.0206 67.4522 62.6703 67.6455C62.32 67.8389 61.9634 67.9387 61.6003 67.9387C60.7405 67.9387 60.1164 67.7328 59.7342 67.3149C59.3521 66.897 59.161 66.2671 59.161 65.425V61.3646H60.6004V65.2878C60.6004 65.8492 60.7087 66.2484 60.9316 66.4791C61.1481 66.7099 61.4602 66.8284 61.8551 66.8284C62.1608 66.8284 62.4092 66.7848 62.613 66.6912C62.8168 66.5977 62.9824 66.4791 63.1034 66.3232C63.2308 66.1735 63.32 65.9864 63.3773 65.7743C63.4346 65.5623 63.4601 65.3315 63.4601 65.082V61.3708H64.8995V67.764ZM67.3516 65.712C67.3962 66.1236 67.5554 66.4105 67.8293 66.5789C68.1095 66.7411 68.4407 66.8284 68.8292 66.8284C68.9629 66.8284 69.1158 66.816 69.2878 66.7972C69.4597 66.7785 69.6253 66.7349 69.7718 66.6787C69.9247 66.6226 70.0457 66.5353 70.1476 66.423C70.2431 66.3107 70.2877 66.1673 70.2813 65.9864C70.275 65.8055 70.2049 65.6558 70.0775 65.5436C69.9501 65.425 69.7909 65.3377 69.5935 65.2629C69.396 65.1943 69.1731 65.1319 68.9184 65.082C68.6636 65.0321 68.4088 64.976 68.1477 64.9198C67.8802 64.8637 67.6191 64.7888 67.3707 64.7078C67.1223 64.6267 66.8994 64.5144 66.7019 64.3709C66.5045 64.2337 66.3453 64.0528 66.2306 63.8345C66.1096 63.6162 66.0523 63.348 66.0523 63.0237C66.0523 62.6744 66.1415 62.3875 66.3134 62.1505C66.4854 61.9134 66.7083 61.7263 66.9694 61.5829C67.2369 61.4394 67.5299 61.3396 67.8547 61.2772C68.1796 61.2211 68.4916 61.1899 68.7846 61.1899C69.1222 61.1899 69.447 61.2273 69.7527 61.296C70.0584 61.3646 70.3387 61.4768 70.5871 61.639C70.8354 61.7949 71.0393 62.0008 71.2048 62.2503C71.3704 62.4998 71.4723 62.8054 71.5169 63.1609H70.0138C69.9438 62.8241 69.7909 62.5933 69.5425 62.481C69.2941 62.3625 69.0075 62.3064 68.6891 62.3064C68.5872 62.3064 68.4662 62.3126 68.326 62.3313C68.1859 62.3501 68.0585 62.3812 67.9312 62.4249C67.8102 62.4686 67.7082 62.5372 67.6191 62.6245C67.5363 62.7118 67.4917 62.8241 67.4917 62.9675C67.4917 63.1422 67.5554 63.2794 67.6764 63.3854C67.7974 63.4915 67.9566 63.5788 68.1541 63.6537C68.3515 63.7223 68.5744 63.7846 68.8292 63.8345C69.084 63.8844 69.3451 63.9406 69.6126 63.9967C69.8737 64.0528 70.1285 64.1277 70.3832 64.2088C70.638 64.2899 70.8609 64.4021 71.0584 64.5456C71.2558 64.689 71.415 64.8637 71.536 65.0758C71.6571 65.2878 71.7207 65.556 71.7207 65.8679C71.7207 66.2484 71.6316 66.5665 71.4532 66.8347C71.2749 67.0966 71.0456 67.3149 70.7654 67.4771C70.4851 67.6393 70.1667 67.764 69.8228 67.8389C69.4788 67.9137 69.1349 67.9511 68.7974 67.9511C68.3834 67.9511 68.0012 67.9075 67.6509 67.8139C67.3006 67.7204 66.9949 67.5831 66.7402 67.4023C66.4854 67.2151 66.2816 66.9844 66.1351 66.7099C65.9886 66.4355 65.9122 66.1049 65.8994 65.7244H67.3516V65.712ZM72.1029 61.3646H73.192V59.4435H74.6314V61.3646H75.9307V62.4187H74.6314V65.8367C74.6314 65.9864 74.6378 66.1111 74.6505 66.2234C74.6632 66.3295 74.6951 66.423 74.7397 66.4979C74.7842 66.5727 74.8543 66.6288 74.9498 66.6663C75.0454 66.7037 75.1664 66.7224 75.332 66.7224C75.4339 66.7224 75.5358 66.7224 75.6377 66.7162C75.7396 66.7099 75.8415 66.6975 75.9434 66.6725V67.764C75.7842 67.7827 75.625 67.7952 75.4785 67.8139C75.3256 67.8326 75.1728 67.8389 75.0135 67.8389C74.6314 67.8389 74.3257 67.8015 74.0964 67.7328C73.8671 67.6642 73.6824 67.5582 73.555 67.421C73.4213 67.2838 73.3385 67.1154 73.2875 66.9095C73.2429 66.7037 73.2111 66.4667 73.2047 66.2047V62.4311H72.1156V61.3646H72.1029ZM76.9497 61.3646H78.3127V62.2315H78.3382C78.542 61.8573 78.8222 61.5953 79.1852 61.4332C79.5483 61.271 79.9368 61.1899 80.3635 61.1899C80.8794 61.1899 81.3253 61.2772 81.7074 61.4581C82.0895 61.6328 82.408 61.876 82.6628 62.1879C82.9175 62.4998 83.1022 62.8615 83.2296 63.2732C83.357 63.6848 83.4207 64.1277 83.4207 64.5955C83.4207 65.0259 83.3633 65.4438 83.2487 65.8429C83.1341 66.2484 82.9621 66.6039 82.7328 66.9158C82.5035 67.2276 82.2105 67.4709 81.8539 67.658C81.4972 67.8451 81.0832 67.9387 80.5992 67.9387C80.389 67.9387 80.1788 67.92 79.9686 67.8825C79.7585 67.8451 79.5547 67.7827 79.3636 67.7017C79.1725 67.6206 78.9878 67.5145 78.8286 67.3836C78.663 67.2526 78.5292 67.1029 78.4146 66.9345H78.3891V70.128H76.9497V61.3646ZM81.9813 64.5705C81.9813 64.2836 81.943 64.0029 81.8666 63.7285C81.7902 63.4541 81.6755 63.217 81.5227 63.005C81.3698 62.7929 81.1788 62.6245 80.9558 62.4998C80.7266 62.375 80.4654 62.3064 80.1724 62.3064C79.5674 62.3064 79.1088 62.5122 78.8031 62.9239C78.4974 63.3355 78.3445 63.8844 78.3445 64.5705C78.3445 64.8949 78.3828 65.1943 78.4655 65.4687C78.5483 65.7431 78.663 65.9802 78.8286 66.1798C78.9878 66.3793 79.1789 66.5353 79.4018 66.6476C79.6247 66.7661 79.8858 66.8222 80.1788 66.8222C80.51 66.8222 80.7839 66.7536 81.0132 66.6226C81.2425 66.4916 81.4272 66.317 81.5736 66.1111C81.7201 65.8991 81.8284 65.6621 81.8921 65.3939C81.9494 65.1257 81.9813 64.8512 81.9813 64.5705ZM84.5225 58.9258H85.9619V60.2606H84.5225V58.9258ZM84.5225 61.3646H85.9619V67.764H84.5225V61.3646ZM87.2485 58.9258H88.6879V67.764H87.2485V58.9258ZM93.1016 67.9387C92.5793 67.9387 92.1144 67.8514 91.7068 67.6829C91.2992 67.5145 90.9552 67.2775 90.6686 66.9844C90.3884 66.685 90.1718 66.3295 90.0254 65.9178C89.8789 65.5061 89.8024 65.0508 89.8024 64.5581C89.8024 64.0716 89.8789 63.6225 90.0254 63.2108C90.1718 62.7991 90.3884 62.4436 90.6686 62.1442C90.9489 61.8448 91.2992 61.6141 91.7068 61.4456C92.1144 61.2772 92.5793 61.1899 93.1016 61.1899C93.6239 61.1899 94.0888 61.2772 94.4964 61.4456C94.904 61.6141 95.248 61.8511 95.5346 62.1442C95.8148 62.4436 96.0314 62.7991 96.1778 63.2108C96.3243 63.6225 96.4008 64.0716 96.4008 64.5581C96.4008 65.0508 96.3243 65.5061 96.1778 65.9178C96.0314 66.3295 95.8148 66.685 95.5346 66.9844C95.2543 67.2838 94.904 67.5145 94.4964 67.6829C94.0888 67.8514 93.6239 67.9387 93.1016 67.9387ZM93.1016 66.8222C93.42 66.8222 93.7003 66.7536 93.9359 66.6226C94.1716 66.4916 94.3627 66.317 94.5155 66.1049C94.6684 65.8928 94.7767 65.6496 94.8531 65.3814C94.9231 65.1132 94.9614 64.8387 94.9614 64.5581C94.9614 64.2836 94.9231 64.0154 94.8531 63.741C94.783 63.4665 94.6684 63.2295 94.5155 63.0174C94.3627 62.8054 94.1716 62.637 93.9359 62.506C93.7003 62.375 93.42 62.3064 93.1016 62.3064C92.7831 62.3064 92.5029 62.375 92.2673 62.506C92.0316 62.637 91.8405 62.8116 91.6877 63.0174C91.5348 63.2295 91.4265 63.4665 91.3501 63.741C91.28 64.0154 91.2418 64.2836 91.2418 64.5581C91.2418 64.8387 91.28 65.1132 91.3501 65.3814C91.4202 65.6496 91.5348 65.8928 91.6877 66.1049C91.8405 66.317 92.0316 66.4916 92.2673 66.6226C92.5029 66.7598 92.7831 66.8222 93.1016 66.8222ZM96.8211 61.3646H97.9102V59.4435H99.3496V61.3646H100.649V62.4187H99.3496V65.8367C99.3496 65.9864 99.356 66.1111 99.3687 66.2234C99.3815 66.3295 99.4133 66.423 99.4579 66.4979C99.5025 66.5727 99.5725 66.6288 99.6681 66.6663C99.7636 66.7037 99.8846 66.7224 100.05 66.7224C100.152 66.7224 100.254 66.7224 100.356 66.7162C100.458 66.7099 100.56 66.6975 100.662 66.6725V67.764C100.502 67.7827 100.343 67.7952 100.197 67.8139C100.044 67.8326 99.891 67.8389 99.7318 67.8389C99.3496 67.8389 99.0439 67.8015 98.8146 67.7328C98.5853 67.6642 98.4006 67.5582 98.2733 67.421C98.1395 67.2838 98.0567 67.1154 98.0058 66.9095C97.9612 66.7037 97.9293 66.4667 97.923 66.2047V62.4311H96.8339V61.3646H96.8211Z" fill="white"></path><path fill-rule="evenodd" clip-rule="evenodd" d="M39.1812 58.9259H45.7796L40.4424 62.7243L40.4423 62.7243L37.1432 65.0695L40.9009 64.1152L40.4516 62.7524L42.4804 68.8681L37.1431 65.0696L31.7995 68.8681L33.844 62.7244L28.5004 58.9196L35.0987 58.9259L37.1431 52.7759L39.1812 58.9259Z" fill="white"></path></g><path d="M117.148 59.4218L123.156 59.423L126.81 59.4236V55.7588L117.148 59.4218Z" fill="white"></path><path d="M126.81 55.7584V68.6972L131.373 54.0278L126.81 55.7584Z" fill="white"></path><path d="M126.81 59.4235L123.156 59.4229L126.81 68.6974V59.4235Z" fill="white"></path><path d="M117.148 59.4214L124.093 61.8023L123.156 59.4226L117.148 59.4214Z" fill="white"></path><path d="M139.281 65.2912C139.228 65.3448 139.14 65.4117 139.017 65.4921C138.893 65.5726 138.732 65.653 138.533 65.7334C138.335 65.8137 138.092 65.8828 137.806 65.9411C137.519 65.999 137.19 66.0282 136.82 66.0282C136.105 66.0282 135.487 65.912 134.967 65.6798C134.446 65.4477 134.016 65.1236 133.677 64.7083C133.337 64.2929 133.088 63.8017 132.929 63.2343C132.77 62.667 132.691 62.044 132.691 61.365C132.691 60.6862 132.777 60.0585 132.949 59.4823C133.121 58.9061 133.379 58.4083 133.723 57.9882C134.067 57.5684 134.497 57.2401 135.013 57.0033C135.529 56.7667 136.136 56.6482 136.833 56.6482C137.177 56.6482 137.488 56.6796 137.766 56.742C138.044 56.8045 138.286 56.8783 138.494 56.9631C138.701 57.0481 138.873 57.1373 139.01 57.2311C139.147 57.3249 139.25 57.4032 139.321 57.4656C139.4 57.5372 139.469 57.622 139.526 57.7201C139.583 57.8186 139.612 57.9258 139.612 58.0418C139.612 58.2206 139.546 58.3992 139.414 58.5778C139.281 58.7566 139.136 58.9218 138.977 59.0736C138.871 58.9664 138.752 58.8571 138.62 58.7453C138.487 58.6337 138.339 58.5355 138.176 58.4505C138.013 58.3657 137.828 58.2943 137.62 58.2361C137.413 58.1781 137.181 58.149 136.926 58.149C136.476 58.149 136.099 58.2407 135.794 58.4237C135.49 58.6069 135.245 58.8458 135.06 59.1406C134.874 59.4354 134.742 59.7727 134.663 60.1523C134.583 60.5321 134.544 60.9184 134.544 61.3114C134.544 61.7314 134.583 62.1334 134.663 62.5173C134.742 62.9015 134.879 63.2411 135.073 63.5357C135.267 63.8305 135.521 64.0673 135.834 64.2459C136.147 64.4247 136.537 64.5139 137.005 64.5139C137.252 64.5139 137.479 64.4828 137.687 64.4202C137.894 64.3577 138.077 64.2817 138.236 64.1923C138.395 64.1032 138.534 64.0094 138.653 63.911C138.772 63.8127 138.871 63.728 138.95 63.6564C139.003 63.719 139.065 63.795 139.136 63.8842C139.207 63.9744 139.273 64.0683 139.334 64.1656C139.396 64.264 139.449 64.3622 139.493 64.4603C139.537 64.5588 139.559 64.648 139.559 64.7283C139.559 64.8445 139.537 64.9427 139.493 65.0231C139.449 65.1035 139.378 65.193 139.281 65.2912ZM146.101 64.2635C146.101 64.9735 146.203 65.4903 146.407 65.8138C146.248 65.8766 146.099 65.9216 145.961 65.9485C145.824 65.9755 145.679 65.989 145.529 65.989C145.209 65.989 144.967 65.926 144.803 65.8003C144.639 65.6746 144.534 65.4948 144.49 65.261C144.295 65.4679 144.037 65.6431 143.718 65.7869C143.398 65.9304 143.008 66.0025 142.546 66.0025C142.307 66.0025 142.067 65.9689 141.827 65.9019C141.588 65.8344 141.37 65.7249 141.175 65.5728C140.98 65.4203 140.82 65.2165 140.696 64.9612C140.571 64.7058 140.509 64.3946 140.509 64.0273C140.509 63.5704 140.618 63.1985 140.836 62.912C141.053 62.6252 141.326 62.399 141.654 62.2332C141.983 62.0676 142.338 61.9536 142.72 61.8908C143.101 61.828 143.452 61.7878 143.771 61.7696C143.878 61.7608 143.982 61.7561 144.084 61.7561H144.37V61.5108C144.37 61.1653 144.279 60.9199 144.097 60.7746C143.915 60.6292 143.62 60.5564 143.212 60.5564C142.83 60.5564 142.491 60.6193 142.194 60.7451C141.896 60.8711 141.605 61.0147 141.322 61.1765C141.197 61.0238 141.097 60.8553 141.022 60.671C140.947 60.4869 140.909 60.3498 140.909 60.2598C140.909 60.1341 140.977 60.0127 141.115 59.8958C141.253 59.7792 141.441 59.6734 141.681 59.579C141.921 59.4847 142.196 59.4084 142.507 59.3499C142.817 59.2915 143.146 59.2623 143.492 59.2623C143.971 59.2623 144.377 59.3118 144.71 59.4105C145.043 59.5095 145.313 59.6622 145.522 59.8689C145.73 60.0757 145.879 60.334 145.968 60.644C146.057 60.9541 146.101 61.316 146.101 61.7292L146.101 64.2635ZM144.397 62.6997H144.211C144.148 62.6997 144.086 62.7044 144.024 62.7133C143.802 62.7314 143.582 62.7583 143.365 62.7941C143.148 62.8301 142.955 62.893 142.786 62.9829C142.617 63.0728 142.48 63.1897 142.373 63.3333C142.267 63.4772 142.214 63.6615 142.214 63.8861C142.214 64.1378 142.284 64.3511 142.427 64.5264C142.568 64.7017 142.808 64.7893 143.145 64.7893C143.314 64.7893 143.474 64.767 143.625 64.7218C143.776 64.677 143.909 64.6186 144.024 64.5467C144.139 64.4747 144.231 64.3962 144.297 64.3107C144.364 64.2254 144.397 64.1468 144.397 64.0748L144.397 62.6997ZM149.416 60.0441C149.557 59.8734 149.779 59.7003 150.08 59.525C150.38 59.3498 150.761 59.2622 151.221 59.2622C151.548 59.2622 151.86 59.3184 152.157 59.4307C152.453 59.5431 152.716 59.7252 152.946 59.9766C153.176 60.2284 153.36 60.5609 153.497 60.9742C153.634 61.3877 153.703 61.8956 153.703 62.4975C153.703 63.1985 153.623 63.7761 153.464 64.2298C153.305 64.6838 153.099 65.0433 152.847 65.3083C152.595 65.5734 152.314 65.7599 152.004 65.8677C151.695 65.9755 151.385 66.0295 151.075 66.0295C150.819 66.0295 150.595 66.0003 150.405 65.9419C150.215 65.8834 150.053 65.8184 149.921 65.7464C149.788 65.6746 149.686 65.6028 149.615 65.5307C149.545 65.4589 149.5 65.4093 149.483 65.3823V68.6962H147.672V59.4509C147.717 59.442 147.77 59.433 147.833 59.4239C147.887 59.4151 147.949 59.4083 148.021 59.4037C148.092 59.3993 148.177 59.397 148.276 59.397C148.571 59.397 148.821 59.4465 149.027 59.5453C149.232 59.6443 149.362 59.8104 149.416 60.0441ZM151.812 62.5379C151.812 62.2683 151.79 62.0169 151.746 61.7831C151.702 61.5495 151.629 61.3472 151.528 61.1765C151.426 61.0058 151.289 60.8731 151.117 60.7787C150.945 60.6844 150.736 60.6373 150.489 60.6373C150.118 60.6373 149.86 60.7093 149.714 60.8529C149.569 60.9967 149.496 61.1541 149.496 61.3247V64.1827C149.566 64.2547 149.692 64.3399 149.873 64.4388C150.054 64.5378 150.263 64.587 150.502 64.587C150.952 64.587 151.283 64.4074 151.495 64.0478C151.707 63.6884 151.812 63.185 151.812 62.5379ZM155.1 64.8567C155.038 64.677 154.998 64.4882 154.981 64.2905C154.963 64.0928 154.954 63.8952 154.954 63.6972V57.4422C155.016 57.4334 155.083 57.4244 155.154 57.4153C155.216 57.4065 155.282 57.3998 155.353 57.3951C155.424 57.3907 155.495 57.3884 155.566 57.3884C155.708 57.3884 155.85 57.4019 155.992 57.4288C156.134 57.4558 156.263 57.5097 156.379 57.5905C156.494 57.6714 156.587 57.7816 156.658 57.9208C156.729 58.0602 156.765 58.2423 156.765 58.4668V59.4239H158.629V60.7855H156.765V63.6602C156.765 64.2871 157.018 64.6005 157.524 64.6005C157.648 64.6005 157.765 64.5804 157.876 64.5398C157.987 64.4994 158.087 64.4545 158.176 64.4051C158.265 64.3557 158.342 64.304 158.409 64.25C158.475 64.1961 158.522 64.1557 158.549 64.1288C158.682 64.3266 158.784 64.4978 158.855 64.6423C158.926 64.787 158.961 64.9228 158.961 65.0497C158.961 65.1677 158.915 65.2835 158.822 65.3968C158.728 65.5101 158.597 65.6146 158.429 65.7098C158.26 65.805 158.056 65.8821 157.816 65.9411C157.577 66.0001 157.315 66.0296 157.031 66.0296C156.48 66.0296 156.052 65.9217 155.746 65.7061C155.44 65.4903 155.225 65.2071 155.1 64.8567ZM163.214 64.6814C163.437 64.6814 163.633 64.6568 163.802 64.6072C163.971 64.558 164.123 64.4973 164.256 64.4254C164.39 64.3536 164.506 64.2749 164.604 64.1895C164.702 64.1041 164.791 64.0255 164.871 63.9535C164.978 64.0882 165.089 64.2614 165.205 64.4724C165.321 64.6838 165.379 64.8567 165.379 64.9914C165.379 65.1892 165.268 65.369 165.046 65.5307C164.86 65.6746 164.595 65.7982 164.254 65.9014C163.912 66.0047 163.51 66.0564 163.049 66.0564C162.631 66.0564 162.221 66.0025 161.817 65.8947C161.413 65.7869 161.054 65.5981 160.739 65.3284C160.424 65.0589 160.169 64.6972 159.973 64.2433C159.778 63.7895 159.681 63.2167 159.681 62.5245C159.681 61.9583 159.767 61.4709 159.94 61.0619C160.113 60.653 160.344 60.3137 160.633 60.0441C160.921 59.7745 161.247 59.5769 161.611 59.4509C161.975 59.3252 162.348 59.2622 162.729 59.2622C163.226 59.2622 163.648 59.341 163.994 59.4981C164.34 59.6555 164.622 59.8667 164.84 60.1317C165.057 60.3968 165.214 60.7002 165.312 61.0417C165.41 61.3833 165.459 61.7426 165.459 62.1201V62.3088C165.459 62.3809 165.456 62.4571 165.452 62.538C165.447 62.6189 165.443 62.6977 165.439 62.7739C165.434 62.8504 165.427 62.911 165.419 62.9559H161.491C161.527 63.4502 161.678 63.8613 161.945 64.1895C162.212 64.5176 162.635 64.6814 163.214 64.6814ZM163.821 61.9448C163.821 61.5134 163.738 61.1629 163.573 60.8933C163.408 60.6238 163.111 60.4889 162.683 60.4889C162.317 60.4889 162.024 60.617 161.806 60.8731C161.587 61.1293 161.478 61.4865 161.478 61.9448L163.821 61.9448ZM168.61 60.0781C168.663 59.9979 168.734 59.9088 168.822 59.8106C168.911 59.7125 169.02 59.6234 169.149 59.5432C169.277 59.4629 169.419 59.3959 169.575 59.3424C169.73 59.2889 169.896 59.2622 170.074 59.2622C170.181 59.2622 170.294 59.2713 170.413 59.2889C170.533 59.3068 170.644 59.3403 170.746 59.3892C170.848 59.4383 170.93 59.505 170.993 59.5897C171.055 59.6744 171.086 59.7791 171.086 59.9038C171.086 60.0999 171.037 60.3251 170.939 60.5793C170.842 60.8338 170.744 61.0508 170.647 61.2304C170.495 61.1046 170.345 61.008 170.194 60.9406C170.043 60.8732 169.865 60.8395 169.661 60.8395C169.386 60.8395 169.155 60.9206 168.969 61.0828C168.782 61.2449 168.689 61.4387 168.689 61.6641V66.0281H166.879V59.4509C166.923 59.442 166.976 59.433 167.038 59.4239C167.092 59.4151 167.154 59.4083 167.225 59.4037C167.296 59.3993 167.38 59.397 167.478 59.397C167.762 59.397 168.008 59.4528 168.217 59.564C168.425 59.6752 168.556 59.8467 168.61 60.0781ZM173.757 60.0781C173.811 59.9979 173.882 59.9088 173.97 59.8106C174.059 59.7125 174.168 59.6234 174.297 59.5432C174.425 59.4629 174.567 59.3959 174.723 59.3424C174.878 59.2889 175.044 59.2622 175.222 59.2622C175.328 59.2622 175.441 59.2713 175.561 59.2889C175.681 59.3068 175.792 59.3403 175.894 59.3892C175.996 59.4383 176.078 59.505 176.141 59.5897C176.203 59.6744 176.234 59.7791 176.234 59.9038C176.234 60.0999 176.185 60.3251 176.087 60.5793C175.989 60.8338 175.892 61.0508 175.794 61.2304C175.643 61.1046 175.492 61.008 175.342 60.9406C175.191 60.8732 175.013 60.8395 174.809 60.8395C174.534 60.8395 174.303 60.9206 174.117 61.0828C173.93 61.2449 173.837 61.4387 173.837 61.6641V66.0281H172.027V59.4509C172.071 59.442 172.124 59.433 172.186 59.4239C172.24 59.4151 172.302 59.4083 172.373 59.4037C172.444 59.3993 172.528 59.397 172.626 59.397C172.91 59.397 173.156 59.4528 173.365 59.564C173.573 59.6752 173.704 59.8467 173.757 60.0781ZM182.398 64.2635C182.398 64.9735 182.5 65.4903 182.704 65.8138C182.544 65.8766 182.396 65.9216 182.258 65.9485C182.12 65.9755 181.976 65.989 181.825 65.989C181.506 65.989 181.264 65.926 181.1 65.8003C180.936 65.6746 180.831 65.4948 180.787 65.261C180.592 65.4679 180.334 65.6431 180.015 65.7869C179.695 65.9304 179.305 66.0025 178.843 66.0025C178.604 66.0025 178.364 65.9689 178.124 65.9019C177.885 65.8344 177.667 65.7249 177.472 65.5728C177.277 65.4203 177.117 65.2165 176.993 64.9612C176.868 64.7058 176.806 64.3946 176.806 64.0273C176.806 63.5704 176.915 63.1985 177.132 62.912C177.35 62.6252 177.623 62.399 177.951 62.2332C178.28 62.0676 178.635 61.9536 179.016 61.8908C179.398 61.828 179.749 61.7878 180.068 61.7696C180.175 61.7608 180.279 61.7561 180.381 61.7561H180.667V61.5108C180.667 61.1653 180.576 60.9199 180.394 60.7746C180.212 60.6292 179.917 60.5564 179.509 60.5564C179.127 60.5564 178.788 60.6193 178.49 60.7451C178.193 60.8711 177.902 61.0147 177.618 61.1765C177.494 61.0238 177.394 60.8553 177.319 60.671C177.243 60.4869 177.206 60.3498 177.206 60.2598C177.206 60.1341 177.274 60.0127 177.412 59.8958C177.55 59.7792 177.738 59.6734 177.978 59.579C178.218 59.4847 178.493 59.4084 178.803 59.3499C179.114 59.2915 179.442 59.2623 179.788 59.2623C180.268 59.2623 180.674 59.3118 181.007 59.4105C181.339 59.5095 181.61 59.6622 181.819 59.8689C182.027 60.0757 182.176 60.334 182.265 60.644C182.353 60.9541 182.398 61.316 182.398 61.7292V64.2635ZM180.694 62.6997H180.507C180.445 62.6997 180.383 62.7044 180.321 62.7133C180.099 62.7314 179.879 62.7583 179.662 62.7941C179.444 62.8301 179.251 62.893 179.083 62.9829C178.914 63.0728 178.777 63.1897 178.67 63.3333C178.564 63.4772 178.51 63.6615 178.51 63.8861C178.51 64.1378 178.581 64.3511 178.723 64.5264C178.865 64.7017 179.105 64.7893 179.442 64.7893C179.611 64.7893 179.771 64.767 179.922 64.7218C180.073 64.677 180.206 64.6186 180.321 64.5467C180.436 64.4747 180.527 64.3962 180.594 64.3107C180.661 64.2254 180.694 64.1468 180.694 64.0748L180.694 62.6997Z" fill="white"></path><g clip-path="url(#clip1_3820_7710)"><path d="M216.267 65.9644C217.09 67.3673 217.905 68.7543 218.719 70.1397C215.115 72.8478 209.509 73.1751 205.358 70.0565C200.582 66.4648 199.797 60.3364 202.354 55.9248C205.295 50.8506 210.799 49.7284 214.342 50.5513C214.246 50.7557 212.124 55.0776 212.124 55.0776C212.124 55.0776 211.956 55.0884 211.861 55.0902C210.814 55.1338 210.034 55.3731 209.198 55.7974C208.28 56.2673 207.494 56.9506 206.908 57.7875C206.322 58.6245 205.953 59.5897 205.835 60.5987C205.711 61.622 205.855 62.6594 206.254 63.6128C206.59 64.4188 207.067 65.1347 207.706 65.739C208.685 66.6671 209.851 67.2417 211.203 67.4319C212.482 67.6123 213.713 67.4337 214.866 66.8648C215.299 66.6518 215.667 66.4164 216.097 66.0937C216.152 66.0588 216.201 66.0146 216.267 65.9644Z" fill="white"></path><path d="M216.275 53.6611C216.066 53.4592 215.872 53.2728 215.679 53.0853C215.564 52.9735 215.453 52.8572 215.335 52.7481C215.293 52.7087 215.243 52.6549 215.243 52.6549C215.243 52.6549 215.284 52.5714 215.301 52.5371C215.526 52.0926 215.88 51.7678 216.299 51.5093C216.763 51.2213 217.304 51.0748 217.852 51.0883C218.554 51.1018 219.207 51.2734 219.758 51.7356C220.164 52.0767 220.373 52.5095 220.41 53.0261C220.471 53.8976 220.104 54.5651 219.374 55.0309C218.945 55.305 218.483 55.5169 218.019 55.7679C217.764 55.9064 217.545 56.0281 217.295 56.2788C217.076 56.5303 217.065 56.7674 217.065 56.7674L220.386 56.7632V58.2151H215.26V58.0747C215.24 57.3613 215.325 56.6899 215.658 56.0419C215.964 55.4475 216.44 55.0123 217.011 54.6772C217.451 54.4191 217.915 54.1994 218.356 53.9424C218.628 53.784 218.821 53.5517 218.819 53.2148C218.819 52.9257 218.605 52.6688 218.299 52.5885C217.577 52.3974 216.842 52.7024 216.46 53.351C216.404 53.4456 216.347 53.5397 216.275 53.6611ZM222.699 64.4214L219.9 59.6772H214.362L211.545 64.4704H217.124L219.877 69.1921L222.699 64.4214Z" fill="white"></path></g><mask id="mask0_3820_7710" style="mask-type:luminance" maskUnits="userSpaceOnUse" x="41" y="0" width="20" height="18"><path fill-rule="evenodd" clip-rule="evenodd" d="M50.9931 14.38L56.8129 17.8926L55.2685 11.2723L60.4102 6.81802L53.6393 6.24358L50.9931 0L48.3469 6.24358L41.5759 6.81802L46.7177 11.2723L45.1733 17.8926L50.9931 14.38Z" fill="white"></path></mask><g mask="url(#mask0_3820_7710)"><rect x="27.4502" y="-14.1257" width="47.0858" height="47.0858" fill="white"></rect></g><mask id="mask1_3820_7710" style="mask-type:luminance" maskUnits="userSpaceOnUse" x="66" y="0" width="19" height="18"><path fill-rule="evenodd" clip-rule="evenodd" d="M75.4787 14.38L81.2985 17.8926L79.7541 11.2723L84.8958 6.81802L78.1249 6.24358L75.4787 0L72.8325 6.24358L66.0615 6.81802L71.2033 11.2723L69.6589 17.8926L75.4787 14.38Z" fill="white"></path></mask><g mask="url(#mask1_3820_7710)"><rect x="51.9358" y="-14.1257" width="47.0858" height="47.0858" fill="white"></rect></g><mask id="mask2_3820_7710" style="mask-type:luminance" maskUnits="userSpaceOnUse" x="90" y="0" width="20" height="18"><path fill-rule="evenodd" clip-rule="evenodd" d="M99.9643 14.38L105.784 17.8926L104.24 11.2723L109.381 6.81802L102.611 6.24358L99.9643 0L97.3181 6.24358L90.5471 6.81802L95.6889 11.2723L94.1445 17.8926L99.9643 14.38Z" fill="white"></path></mask><g mask="url(#mask2_3820_7710)"><rect x="76.4214" y="-14.1257" width="47.0858" height="47.0858" fill="white"></rect></g><mask id="mask3_3820_7710" style="mask-type:luminance" maskUnits="userSpaceOnUse" x="115" y="0" width="19" height="18"><path fill-rule="evenodd" clip-rule="evenodd" d="M124.445 14.38L130.265 17.8926L128.721 11.2723L133.863 6.81802L127.092 6.24358L124.445 0L121.799 6.24358L115.028 6.81802L120.17 11.2723L118.626 17.8926L124.445 14.38Z" fill="white"></path></mask><g mask="url(#mask3_3820_7710)"><rect x="100.903" y="-14.1257" width="47.0858" height="47.0858" fill="white"></rect></g><mask id="mask4_3820_7710" style="mask-type:luminance" maskUnits="userSpaceOnUse" x="139" y="0" width="19" height="18"><path fill-rule="evenodd" clip-rule="evenodd" d="M148.493 14.38L154.312 17.8926L152.768 11.2723L157.91 6.81802L151.139 6.24358L148.493 0L145.846 6.24358L139.075 6.81802L144.217 11.2723L142.673 17.8926L148.493 14.38Z" fill="white"></path></mask><g mask="url(#mask4_3820_7710)"><rect x="124.95" y="-14.1257" width="47.0858" height="47.0858" fill="white"></rect></g><path d="M23.9165 35.242C24.4859 35.4006 24.9339 35.69 25.2605 36.11C25.5872 36.5206 25.7505 37.0433 25.7505 37.678C25.7505 38.5273 25.4285 39.1806 24.7845 39.638C24.1499 40.0953 23.2212 40.324 21.9985 40.324H17.3225V30.524H21.7185C22.8385 30.524 23.7019 30.748 24.3085 31.196C24.9245 31.644 25.2325 32.2646 25.2325 33.058C25.2325 33.5713 25.1112 34.0146 24.8685 34.388C24.6352 34.7613 24.3179 35.046 23.9165 35.242ZM18.7225 31.658V34.794H21.5925C22.3112 34.794 22.8619 34.6633 23.2445 34.402C23.6365 34.1313 23.8325 33.7393 23.8325 33.226C23.8325 32.7126 23.6365 32.3253 23.2445 32.064C22.8619 31.7933 22.3112 31.658 21.5925 31.658H18.7225ZM21.9425 39.19C22.7359 39.19 23.3332 39.0593 23.7345 38.798C24.1359 38.5366 24.3365 38.126 24.3365 37.566C24.3365 36.474 23.5385 35.928 21.9425 35.928H18.7225V39.19H21.9425ZM30.4242 32.834C31.4509 32.834 32.2349 33.086 32.7762 33.59C33.3269 34.094 33.6022 34.8453 33.6022 35.844V40.324H32.3282V39.344C32.1042 39.6893 31.7822 39.9553 31.3622 40.142C30.9516 40.3193 30.4616 40.408 29.8922 40.408C29.0616 40.408 28.3942 40.2073 27.8902 39.806C27.3956 39.4046 27.1482 38.8773 27.1482 38.224C27.1482 37.5706 27.3862 37.048 27.8622 36.656C28.3382 36.2546 29.0942 36.054 30.1302 36.054H32.2582V35.788C32.2582 35.2093 32.0902 34.766 31.7542 34.458C31.4182 34.15 30.9236 33.996 30.2702 33.996C29.8316 33.996 29.4022 34.0706 28.9822 34.22C28.5622 34.36 28.2076 34.5513 27.9182 34.794L27.3582 33.786C27.7409 33.478 28.1982 33.2446 28.7302 33.086C29.2622 32.918 29.8269 32.834 30.4242 32.834ZM30.1162 39.372C30.6296 39.372 31.0729 39.26 31.4462 39.036C31.8196 38.8026 32.0902 38.476 32.2582 38.056V37.02H30.1862C29.0476 37.02 28.4782 37.4026 28.4782 38.168C28.4782 38.5413 28.6229 38.8353 28.9122 39.05C29.2016 39.2646 29.6029 39.372 30.1162 39.372ZM38.2174 40.408C37.6108 40.408 37.0274 40.3286 36.4674 40.17C35.9074 40.002 35.4688 39.792 35.1514 39.54L35.7114 38.476C36.0381 38.7093 36.4348 38.896 36.9014 39.036C37.3681 39.176 37.8394 39.246 38.3154 39.246C39.4914 39.246 40.0794 38.91 40.0794 38.238C40.0794 38.014 40.0001 37.8366 39.8414 37.706C39.6828 37.5753 39.4821 37.482 39.2394 37.426C39.0061 37.3606 38.6701 37.2906 38.2314 37.216C37.6341 37.1226 37.1441 37.0153 36.7614 36.894C36.3881 36.7726 36.0661 36.5673 35.7954 36.278C35.5248 35.9886 35.3894 35.5826 35.3894 35.06C35.3894 34.388 35.6694 33.8513 36.2294 33.45C36.7894 33.0393 37.5408 32.834 38.4834 32.834C38.9781 32.834 39.4728 32.8946 39.9674 33.016C40.4621 33.1373 40.8681 33.3006 41.1854 33.506L40.6114 34.57C40.0048 34.178 39.2908 33.982 38.4694 33.982C37.9001 33.982 37.4661 34.0753 37.1674 34.262C36.8688 34.4486 36.7194 34.696 36.7194 35.004C36.7194 35.2466 36.8034 35.438 36.9714 35.578C37.1394 35.718 37.3448 35.8206 37.5874 35.886C37.8394 35.9513 38.1894 36.026 38.6374 36.11C39.2348 36.2126 39.7154 36.3246 40.0794 36.446C40.4528 36.558 40.7701 36.754 41.0314 37.034C41.2928 37.314 41.4234 37.706 41.4234 38.21C41.4234 38.882 41.1341 39.4186 40.5554 39.82C39.9861 40.212 39.2068 40.408 38.2174 40.408ZM49.8091 36.656C49.8091 36.7586 49.7998 36.894 49.7811 37.062H43.7611C43.8451 37.7153 44.1298 38.2426 44.6151 38.644C45.1098 39.036 45.7211 39.232 46.4491 39.232C47.3358 39.232 48.0498 38.9333 48.5911 38.336L49.3331 39.204C48.9971 39.596 48.5771 39.8946 48.0731 40.1C47.5784 40.3053 47.0231 40.408 46.4071 40.408C45.6231 40.408 44.9278 40.2493 44.3211 39.932C43.7144 39.6053 43.2431 39.1526 42.9071 38.574C42.5804 37.9953 42.4171 37.342 42.4171 36.614C42.4171 35.8953 42.5758 35.2466 42.8931 34.668C43.2198 34.0893 43.6631 33.6413 44.2231 33.324C44.7924 32.9973 45.4318 32.834 46.1411 32.834C46.8504 32.834 47.4804 32.9973 48.0311 33.324C48.5911 33.6413 49.0251 34.0893 49.3331 34.668C49.6504 35.2466 49.8091 35.9093 49.8091 36.656ZM46.1411 33.968C45.4971 33.968 44.9558 34.164 44.5171 34.556C44.0878 34.948 43.8358 35.4613 43.7611 36.096H48.5211C48.4464 35.4706 48.1898 34.962 47.7511 34.57C47.3218 34.1686 46.7851 33.968 46.1411 33.968ZM58.6754 29.936V40.324H57.3874V39.148C57.0887 39.5586 56.7107 39.8713 56.2534 40.086C55.796 40.3006 55.292 40.408 54.7414 40.408C54.0227 40.408 53.3787 40.2493 52.8094 39.932C52.24 39.6146 51.792 39.1713 51.4654 38.602C51.148 38.0233 50.9894 37.3606 50.9894 36.614C50.9894 35.8673 51.148 35.2093 51.4654 34.64C51.792 34.0706 52.24 33.6273 52.8094 33.31C53.3787 32.9926 54.0227 32.834 54.7414 32.834C55.2734 32.834 55.7634 32.9366 56.2114 33.142C56.6594 33.338 57.0327 33.632 57.3314 34.024V29.936H58.6754ZM54.8534 39.232C55.32 39.232 55.7447 39.1246 56.1274 38.91C56.51 38.686 56.8087 38.378 57.0234 37.986C57.238 37.5846 57.3454 37.1273 57.3454 36.614C57.3454 36.1006 57.238 35.648 57.0234 35.256C56.8087 34.8546 56.51 34.5466 56.1274 34.332C55.7447 34.1173 55.32 34.01 54.8534 34.01C54.3774 34.01 53.948 34.1173 53.5654 34.332C53.192 34.5466 52.8934 34.8546 52.6694 35.256C52.4547 35.648 52.3474 36.1006 52.3474 36.614C52.3474 37.1273 52.4547 37.5846 52.6694 37.986C52.8934 38.378 53.192 38.686 53.5654 38.91C53.948 39.1246 54.3774 39.232 54.8534 39.232ZM68.1561 40.408C67.4188 40.408 66.7561 40.2446 66.1681 39.918C65.5801 39.5913 65.1181 39.1433 64.7821 38.574C64.4554 37.9953 64.2921 37.342 64.2921 36.614C64.2921 35.886 64.4554 35.2373 64.7821 34.668C65.1181 34.0893 65.5801 33.6413 66.1681 33.324C66.7561 32.9973 67.4188 32.834 68.1561 32.834C68.8934 32.834 69.5514 32.9973 70.1301 33.324C70.7181 33.6413 71.1754 34.0893 71.5021 34.668C71.8381 35.2373 72.0061 35.886 72.0061 36.614C72.0061 37.342 71.8381 37.9953 71.5021 38.574C71.1754 39.1433 70.7181 39.5913 70.1301 39.918C69.5514 40.2446 68.8934 40.408 68.1561 40.408ZM68.1561 39.232C68.6321 39.232 69.0568 39.1246 69.4301 38.91C69.8128 38.686 70.1114 38.378 70.3261 37.986C70.5408 37.5846 70.6481 37.1273 70.6481 36.614C70.6481 36.1006 70.5408 35.648 70.3261 35.256C70.1114 34.8546 69.8128 34.5466 69.4301 34.332C69.0568 34.1173 68.6321 34.01 68.1561 34.01C67.6801 34.01 67.2508 34.1173 66.8681 34.332C66.4948 34.5466 66.1961 34.8546 65.9721 35.256C65.7574 35.648 65.6501 36.1006 65.6501 36.614C65.6501 37.1273 65.7574 37.5846 65.9721 37.986C66.1961 38.378 66.4948 38.686 66.8681 38.91C67.2508 39.1246 67.6801 39.232 68.1561 39.232ZM77.8268 32.834C78.7695 32.834 79.5162 33.1093 80.0668 33.66C80.6268 34.2013 80.9068 34.9993 80.9068 36.054V40.324H79.5628V36.208C79.5628 35.4893 79.3902 34.948 79.0448 34.584C78.6995 34.22 78.2048 34.038 77.5608 34.038C76.8328 34.038 76.2588 34.2526 75.8388 34.682C75.4188 35.102 75.2088 35.7086 75.2088 36.502V40.324H73.8648V32.904H75.1528V34.024C75.4235 33.6413 75.7875 33.3473 76.2448 33.142C76.7115 32.9366 77.2388 32.834 77.8268 32.834ZM91.3259 39.89C91.1299 40.058 90.8872 40.1886 90.5979 40.282C90.3085 40.366 90.0099 40.408 89.7019 40.408C88.9552 40.408 88.3765 40.2073 87.9659 39.806C87.5552 39.4046 87.3499 38.8306 87.3499 38.084V34.01H86.0899V32.904H87.3499V31.28H88.6939V32.904H90.8219V34.01H88.6939V38.028C88.6939 38.4293 88.7919 38.7373 88.9879 38.952C89.1932 39.1666 89.4825 39.274 89.8559 39.274C90.2665 39.274 90.6165 39.1573 90.9059 38.924L91.3259 39.89ZM96.9128 32.834C97.8554 32.834 98.6021 33.1093 99.1528 33.66C99.7128 34.2013 99.9928 34.9993 99.9928 36.054V40.324H98.6488V36.208C98.6488 35.4893 98.4761 34.948 98.1308 34.584C97.7854 34.22 97.2908 34.038 96.6468 34.038C95.9188 34.038 95.3448 34.2526 94.9248 34.682C94.5048 35.102 94.2948 35.7086 94.2948 36.502V40.324H92.9508V29.936H94.2948V33.954C94.5748 33.5993 94.9388 33.324 95.3868 33.128C95.8441 32.932 96.3528 32.834 96.9128 32.834ZM105.699 40.408C104.962 40.408 104.299 40.2446 103.711 39.918C103.123 39.5913 102.661 39.1433 102.325 38.574C101.998 37.9953 101.835 37.342 101.835 36.614C101.835 35.886 101.998 35.2373 102.325 34.668C102.661 34.0893 103.123 33.6413 103.711 33.324C104.299 32.9973 104.962 32.834 105.699 32.834C106.436 32.834 107.094 32.9973 107.673 33.324C108.261 33.6413 108.718 34.0893 109.045 34.668C109.381 35.2373 109.549 35.886 109.549 36.614C109.549 37.342 109.381 37.9953 109.045 38.574C108.718 39.1433 108.261 39.5913 107.673 39.918C107.094 40.2446 106.436 40.408 105.699 40.408ZM105.699 39.232C106.175 39.232 106.6 39.1246 106.973 38.91C107.356 38.686 107.654 38.378 107.869 37.986C108.084 37.5846 108.191 37.1273 108.191 36.614C108.191 36.1006 108.084 35.648 107.869 35.256C107.654 34.8546 107.356 34.5466 106.973 34.332C106.6 34.1173 106.175 34.01 105.699 34.01C105.223 34.01 104.794 34.1173 104.411 34.332C104.038 34.5466 103.739 34.8546 103.515 35.256C103.3 35.648 103.193 36.1006 103.193 36.614C103.193 37.1273 103.3 37.5846 103.515 37.986C103.739 38.378 104.038 38.686 104.411 38.91C104.794 39.1246 105.223 39.232 105.699 39.232ZM118.324 32.904V40.324H117.05V39.204C116.779 39.5866 116.42 39.8853 115.972 40.1C115.533 40.3053 115.052 40.408 114.53 40.408C113.54 40.408 112.761 40.1373 112.192 39.596C111.622 39.0453 111.338 38.238 111.338 37.174V32.904H112.682V37.02C112.682 37.7386 112.854 38.2846 113.2 38.658C113.545 39.022 114.04 39.204 114.684 39.204C115.393 39.204 115.953 38.9893 116.364 38.56C116.774 38.1306 116.98 37.524 116.98 36.74V32.904H118.324ZM123.01 40.408C122.404 40.408 121.82 40.3286 121.26 40.17C120.7 40.002 120.262 39.792 119.944 39.54L120.504 38.476C120.831 38.7093 121.228 38.896 121.694 39.036C122.161 39.176 122.632 39.246 123.108 39.246C124.284 39.246 124.872 38.91 124.872 38.238C124.872 38.014 124.793 37.8366 124.634 37.706C124.476 37.5753 124.275 37.482 124.032 37.426C123.799 37.3606 123.463 37.2906 123.024 37.216C122.427 37.1226 121.937 37.0153 121.554 36.894C121.181 36.7726 120.859 36.5673 120.588 36.278C120.318 35.9886 120.182 35.5826 120.182 35.06C120.182 34.388 120.462 33.8513 121.022 33.45C121.582 33.0393 122.334 32.834 123.276 32.834C123.771 32.834 124.266 32.8946 124.76 33.016C125.255 33.1373 125.661 33.3006 125.978 33.506L125.404 34.57C124.798 34.178 124.084 33.982 123.262 33.982C122.693 33.982 122.259 34.0753 121.96 34.262C121.662 34.4486 121.512 34.696 121.512 35.004C121.512 35.2466 121.596 35.438 121.764 35.578C121.932 35.718 122.138 35.8206 122.38 35.886C122.632 35.9513 122.982 36.026 123.43 36.11C124.028 36.2126 124.508 36.3246 124.872 36.446C125.246 36.558 125.563 36.754 125.824 37.034C126.086 37.314 126.216 37.706 126.216 38.21C126.216 38.882 125.927 39.4186 125.348 39.82C124.779 40.212 124 40.408 123.01 40.408ZM130.598 32.834C131.625 32.834 132.409 33.086 132.95 33.59C133.501 34.094 133.776 34.8453 133.776 35.844V40.324H132.502V39.344C132.278 39.6893 131.956 39.9553 131.536 40.142C131.125 40.3193 130.635 40.408 130.066 40.408C129.235 40.408 128.568 40.2073 128.064 39.806C127.569 39.4046 127.322 38.8773 127.322 38.224C127.322 37.5706 127.56 37.048 128.036 36.656C128.512 36.2546 129.268 36.054 130.304 36.054H132.432V35.788C132.432 35.2093 132.264 34.766 131.928 34.458C131.592 34.15 131.097 33.996 130.444 33.996C130.005 33.996 129.576 34.0706 129.156 34.22C128.736 34.36 128.381 34.5513 128.092 34.794L127.532 33.786C127.915 33.478 128.372 33.2446 128.904 33.086C129.436 32.918 130.001 32.834 130.598 32.834ZM130.29 39.372C130.803 39.372 131.247 39.26 131.62 39.036C131.993 38.8026 132.264 38.476 132.432 38.056V37.02H130.36C129.221 37.02 128.652 37.4026 128.652 38.168C128.652 38.5413 128.797 38.8353 129.086 39.05C129.375 39.2646 129.777 39.372 130.29 39.372ZM140.225 32.834C141.168 32.834 141.915 33.1093 142.465 33.66C143.025 34.2013 143.305 34.9993 143.305 36.054V40.324H141.961V36.208C141.961 35.4893 141.789 34.948 141.443 34.584C141.098 34.22 140.603 34.038 139.959 34.038C139.231 34.038 138.657 34.2526 138.237 34.682C137.817 35.102 137.607 35.7086 137.607 36.502V40.324H136.263V32.904H137.551V34.024C137.822 33.6413 138.186 33.3473 138.643 33.142C139.11 32.9366 139.637 32.834 140.225 32.834ZM152.834 29.936V40.324H151.546V39.148C151.247 39.5586 150.869 39.8713 150.412 40.086C149.954 40.3006 149.45 40.408 148.9 40.408C148.181 40.408 147.537 40.2493 146.968 39.932C146.398 39.6146 145.95 39.1713 145.624 38.602C145.306 38.0233 145.148 37.3606 145.148 36.614C145.148 35.8673 145.306 35.2093 145.624 34.64C145.95 34.0706 146.398 33.6273 146.968 33.31C147.537 32.9926 148.181 32.834 148.9 32.834C149.432 32.834 149.922 32.9366 150.37 33.142C150.818 33.338 151.191 33.632 151.49 34.024V29.936H152.834ZM149.012 39.232C149.478 39.232 149.903 39.1246 150.286 38.91C150.668 38.686 150.967 38.378 151.182 37.986C151.396 37.5846 151.504 37.1273 151.504 36.614C151.504 36.1006 151.396 35.648 151.182 35.256C150.967 34.8546 150.668 34.5466 150.286 34.332C149.903 34.1173 149.478 34.01 149.012 34.01C148.536 34.01 148.106 34.1173 147.724 34.332C147.35 34.5466 147.052 34.8546 146.828 35.256C146.613 35.648 146.506 36.1006 146.506 36.614C146.506 37.1273 146.613 37.5846 146.828 37.986C147.052 38.378 147.35 38.686 147.724 38.91C148.106 39.1246 148.536 39.232 149.012 39.232ZM157.505 40.408C156.898 40.408 156.315 40.3286 155.755 40.17C155.195 40.002 154.756 39.792 154.439 39.54L154.999 38.476C155.325 38.7093 155.722 38.896 156.189 39.036C156.655 39.176 157.127 39.246 157.603 39.246C158.779 39.246 159.367 38.91 159.367 38.238C159.367 38.014 159.287 37.8366 159.129 37.706C158.97 37.5753 158.769 37.482 158.527 37.426C158.293 37.3606 157.957 37.2906 157.519 37.216C156.921 37.1226 156.431 37.0153 156.049 36.894C155.675 36.7726 155.353 36.5673 155.083 36.278C154.812 35.9886 154.677 35.5826 154.677 35.06C154.677 34.388 154.957 33.8513 155.517 33.45C156.077 33.0393 156.828 32.834 157.771 32.834C158.265 32.834 158.76 32.8946 159.255 33.016C159.749 33.1373 160.155 33.3006 160.473 33.506L159.899 34.57C159.292 34.178 158.578 33.982 157.757 33.982C157.187 33.982 156.753 34.0753 156.455 34.262C156.156 34.4486 156.007 34.696 156.007 35.004C156.007 35.2466 156.091 35.438 156.259 35.578C156.427 35.718 156.632 35.8206 156.875 35.886C157.127 35.9513 157.477 36.026 157.925 36.11C158.522 36.2126 159.003 36.3246 159.367 36.446C159.74 36.558 160.057 36.754 160.319 37.034C160.58 37.314 160.711 37.706 160.711 38.21C160.711 38.882 160.421 39.4186 159.843 39.82C159.273 40.212 158.494 40.408 157.505 40.408ZM169.328 40.408C168.591 40.408 167.928 40.2446 167.34 39.918C166.752 39.5913 166.29 39.1433 165.954 38.574C165.627 37.9953 165.464 37.342 165.464 36.614C165.464 35.886 165.627 35.2373 165.954 34.668C166.29 34.0893 166.752 33.6413 167.34 33.324C167.928 32.9973 168.591 32.834 169.328 32.834C170.065 32.834 170.723 32.9973 171.302 33.324C171.89 33.6413 172.347 34.0893 172.674 34.668C173.01 35.2373 173.178 35.886 173.178 36.614C173.178 37.342 173.01 37.9953 172.674 38.574C172.347 39.1433 171.89 39.5913 171.302 39.918C170.723 40.2446 170.065 40.408 169.328 40.408ZM169.328 39.232C169.804 39.232 170.229 39.1246 170.602 38.91C170.985 38.686 171.283 38.378 171.498 37.986C171.713 37.5846 171.82 37.1273 171.82 36.614C171.82 36.1006 171.713 35.648 171.498 35.256C171.283 34.8546 170.985 34.5466 170.602 34.332C170.229 34.1173 169.804 34.01 169.328 34.01C168.852 34.01 168.423 34.1173 168.04 34.332C167.667 34.5466 167.368 34.8546 167.144 35.256C166.929 35.648 166.822 36.1006 166.822 36.614C166.822 37.1273 166.929 37.5846 167.144 37.986C167.368 38.378 167.667 38.686 168.04 38.91C168.423 39.1246 168.852 39.232 169.328 39.232ZM177.753 30.958C176.95 30.958 176.549 31.392 176.549 32.26V32.904H178.705V34.01H176.577V40.324H175.233V34.01H173.973V32.904H175.233V32.246C175.233 31.5086 175.447 30.9253 175.877 30.496C176.306 30.0666 176.908 29.852 177.683 29.852C177.981 29.852 178.261 29.8893 178.523 29.964C178.784 30.0386 179.008 30.146 179.195 30.286L178.789 31.308C178.481 31.0746 178.135 30.958 177.753 30.958ZM185.02 34.15C185.253 33.7206 185.599 33.394 186.056 33.17C186.513 32.946 187.069 32.834 187.722 32.834V34.136C187.647 34.1266 187.545 34.122 187.414 34.122C186.686 34.122 186.112 34.3413 185.692 34.78C185.281 35.2093 185.076 35.8253 185.076 36.628V40.324H183.732V32.904H185.02V34.15ZM196.016 36.656C196.016 36.7586 196.007 36.894 195.988 37.062H189.968C190.052 37.7153 190.337 38.2426 190.822 38.644C191.317 39.036 191.928 39.232 192.656 39.232C193.543 39.232 194.257 38.9333 194.798 38.336L195.54 39.204C195.204 39.596 194.784 39.8946 194.28 40.1C193.785 40.3053 193.23 40.408 192.614 40.408C191.83 40.408 191.135 40.2493 190.528 39.932C189.921 39.6053 189.45 39.1526 189.114 38.574C188.787 37.9953 188.624 37.342 188.624 36.614C188.624 35.8953 188.783 35.2466 189.1 34.668C189.427 34.0893 189.87 33.6413 190.43 33.324C190.999 32.9973 191.639 32.834 192.348 32.834C193.057 32.834 193.687 32.9973 194.238 33.324C194.798 33.6413 195.232 34.0893 195.54 34.668C195.857 35.2466 196.016 35.9093 196.016 36.656ZM192.348 33.968C191.704 33.968 191.163 34.164 190.724 34.556C190.295 34.948 190.043 35.4613 189.968 36.096H194.728C194.653 35.4706 194.397 34.962 193.958 34.57C193.529 34.1686 192.992 33.968 192.348 33.968ZM204.312 32.904L201.064 40.324H199.692L196.444 32.904H197.844L200.392 38.854L202.996 32.904H204.312ZM205.566 32.904H206.91V40.324H205.566V32.904ZM206.238 31.476C205.977 31.476 205.757 31.392 205.58 31.224C205.412 31.056 205.328 30.8506 205.328 30.608C205.328 30.3653 205.412 30.16 205.58 29.992C205.757 29.8146 205.977 29.726 206.238 29.726C206.499 29.726 206.714 29.81 206.882 29.978C207.059 30.1366 207.148 30.3373 207.148 30.58C207.148 30.832 207.059 31.0466 206.882 31.224C206.714 31.392 206.499 31.476 206.238 31.476ZM216.182 36.656C216.182 36.7586 216.173 36.894 216.154 37.062H210.134C210.218 37.7153 210.503 38.2426 210.988 38.644C211.483 39.036 212.094 39.232 212.822 39.232C213.709 39.232 214.423 38.9333 214.964 38.336L215.706 39.204C215.37 39.596 214.95 39.8946 214.446 40.1C213.951 40.3053 213.396 40.408 212.78 40.408C211.996 40.408 211.301 40.2493 210.694 39.932C210.087 39.6053 209.616 39.1526 209.28 38.574C208.953 37.9953 208.79 37.342 208.79 36.614C208.79 35.8953 208.949 35.2466 209.266 34.668C209.593 34.0893 210.036 33.6413 210.596 33.324C211.165 32.9973 211.805 32.834 212.514 32.834C213.223 32.834 213.853 32.9973 214.404 33.324C214.964 33.6413 215.398 34.0893 215.706 34.668C216.023 35.2466 216.182 35.9093 216.182 36.656ZM212.514 33.968C211.87 33.968 211.329 34.164 210.89 34.556C210.461 34.948 210.209 35.4613 210.134 36.096H214.894C214.819 35.4706 214.563 34.962 214.124 34.57C213.695 34.1686 213.158 33.968 212.514 33.968ZM229.14 32.904L226.368 40.324H225.08L222.938 34.696L220.768 40.324H219.48L216.722 32.904H217.996L220.152 38.812L222.392 32.904H223.526L225.724 38.84L227.936 32.904H229.14ZM232.536 40.408C231.929 40.408 231.346 40.3286 230.786 40.17C230.226 40.002 229.787 39.792 229.47 39.54L230.03 38.476C230.356 38.7093 230.753 38.896 231.22 39.036C231.686 39.176 232.158 39.246 232.634 39.246C233.81 39.246 234.398 38.91 234.398 38.238C234.398 38.014 234.318 37.8366 234.16 37.706C234.001 37.5753 233.8 37.482 233.558 37.426C233.324 37.3606 232.988 37.2906 232.55 37.216C231.952 37.1226 231.462 37.0153 231.08 36.894C230.706 36.7726 230.384 36.5673 230.114 36.278C229.843 35.9886 229.708 35.5826 229.708 35.06C229.708 34.388 229.988 33.8513 230.548 33.45C231.108 33.0393 231.859 32.834 232.802 32.834C233.296 32.834 233.791 32.8946 234.286 33.016C234.78 33.1373 235.186 33.3006 235.504 33.506L234.93 34.57C234.323 34.178 233.609 33.982 232.788 33.982C232.218 33.982 231.784 34.0753 231.486 34.262C231.187 34.4486 231.038 34.696 231.038 35.004C231.038 35.2466 231.122 35.438 231.29 35.578C231.458 35.718 231.663 35.8206 231.906 35.886C232.158 35.9513 232.508 36.026 232.956 36.11C233.553 36.2126 234.034 36.3246 234.398 36.446C234.771 36.558 235.088 36.754 235.35 37.034C235.611 37.314 235.742 37.706 235.742 38.21C235.742 38.882 235.452 39.4186 234.874 39.82C234.304 40.212 233.525 40.408 232.536 40.408Z" fill="white"></path><path opacity="0.75" d="M171.576 12.38H167.376L166.548 14.324H164.94L168.72 5.92397H170.256L174.048 14.324H172.416L171.576 12.38ZM171.06 11.156L169.476 7.48397L167.904 11.156H171.06ZM180.644 7.91597L177.896 14.324H176.348L173.6 7.91597H175.16L177.152 12.668L179.204 7.91597H180.644ZM187.766 7.91597V13.352C187.766 15.608 186.614 16.736 184.31 16.736C183.694 16.736 183.11 16.656 182.558 16.496C182.006 16.344 181.55 16.12 181.19 15.824L181.862 14.696C182.142 14.928 182.494 15.112 182.918 15.248C183.35 15.392 183.786 15.464 184.226 15.464C184.93 15.464 185.446 15.304 185.774 14.984C186.102 14.664 186.266 14.176 186.266 13.52V13.184C186.01 13.464 185.698 13.676 185.33 13.82C184.962 13.964 184.558 14.036 184.118 14.036C183.51 14.036 182.958 13.908 182.462 13.652C181.974 13.388 181.586 13.02 181.298 12.548C181.018 12.076 180.878 11.536 180.878 10.928C180.878 10.32 181.018 9.78397 181.298 9.31997C181.586 8.84797 181.974 8.48397 182.462 8.22797C182.958 7.97197 183.51 7.84397 184.118 7.84397C184.582 7.84397 185.002 7.91997 185.378 8.07197C185.762 8.22397 186.082 8.45597 186.338 8.76797V7.91597H187.766ZM184.346 12.764C184.914 12.764 185.378 12.596 185.738 12.26C186.106 11.916 186.29 11.472 186.29 10.928C186.29 10.392 186.106 9.95597 185.738 9.61997C185.378 9.28397 184.914 9.11597 184.346 9.11597C183.77 9.11597 183.298 9.28397 182.93 9.61997C182.57 9.95597 182.39 10.392 182.39 10.928C182.39 11.472 182.57 11.916 182.93 12.26C183.298 12.596 183.77 12.764 184.346 12.764ZM190.218 14.408C189.946 14.408 189.714 14.316 189.522 14.132C189.33 13.94 189.234 13.7 189.234 13.412C189.234 13.116 189.326 12.876 189.51 12.692C189.702 12.508 189.938 12.416 190.218 12.416C190.498 12.416 190.73 12.508 190.914 12.692C191.106 12.876 191.202 13.116 191.202 13.412C191.202 13.7 191.106 13.94 190.914 14.132C190.722 14.316 190.49 14.408 190.218 14.408ZM203.016 12.416H201.528V14.324H200.016V12.416H195.408V11.336L199.548 5.92397H201.216L197.316 11.096H200.064V9.40397H201.528V11.096H203.016V12.416ZM204.843 14.408C204.571 14.408 204.339 14.316 204.147 14.132C203.955 13.94 203.859 13.7 203.859 13.412C203.859 13.116 203.951 12.876 204.135 12.692C204.327 12.508 204.563 12.416 204.843 12.416C205.123 12.416 205.355 12.508 205.539 12.692C205.731 12.876 205.827 13.116 205.827 13.412C205.827 13.7 205.731 13.94 205.539 14.132C205.347 14.316 205.115 14.408 204.843 14.408ZM212.402 9.90797C212.842 10.108 213.178 10.38 213.41 10.724C213.65 11.06 213.77 11.456 213.77 11.912C213.77 12.424 213.626 12.872 213.338 13.256C213.058 13.64 212.658 13.936 212.138 14.144C211.618 14.344 211.014 14.444 210.326 14.444C209.638 14.444 209.034 14.344 208.514 14.144C208.002 13.936 207.606 13.64 207.326 13.256C207.046 12.872 206.906 12.424 206.906 11.912C206.906 11.456 207.022 11.06 207.254 10.724C207.486 10.38 207.818 10.108 208.25 9.90797C207.914 9.72397 207.654 9.48397 207.47 9.18797C207.294 8.88397 207.206 8.53597 207.206 8.14397C207.206 7.67197 207.334 7.25997 207.59 6.90797C207.854 6.55597 208.222 6.28397 208.694 6.09197C209.166 5.89997 209.71 5.80397 210.326 5.80397C210.95 5.80397 211.498 5.89997 211.97 6.09197C212.442 6.28397 212.81 6.55597 213.074 6.90797C213.338 7.25997 213.47 7.67197 213.47 8.14397C213.47 8.53597 213.378 8.87997 213.194 9.17597C213.01 9.47197 212.746 9.71597 212.402 9.90797ZM210.326 7.02797C209.838 7.02797 209.45 7.13197 209.162 7.33997C208.882 7.54797 208.742 7.83997 208.742 8.21597C208.742 8.57597 208.882 8.86397 209.162 9.07997C209.45 9.28797 209.838 9.39197 210.326 9.39197C210.822 9.39197 211.214 9.28797 211.502 9.07997C211.79 8.86397 211.934 8.57597 211.934 8.21597C211.934 7.83997 211.786 7.54797 211.49 7.33997C211.202 7.13197 210.814 7.02797 210.326 7.02797ZM210.326 13.22C210.902 13.22 211.358 13.1 211.694 12.86C212.03 12.62 212.198 12.288 212.198 11.864C212.198 11.448 212.03 11.12 211.694 10.88C211.358 10.64 210.902 10.52 210.326 10.52C209.75 10.52 209.298 10.64 208.97 10.88C208.642 11.12 208.478 11.448 208.478 11.864C208.478 12.288 208.642 12.62 208.97 12.86C209.298 13.1 209.75 13.22 210.326 13.22Z" fill="white"></path><defs><clipPath id="clip0_3820_7710"><rect width="72.1485" height="17.3522" fill="white" transform="translate(28.5004 52.7759)"></rect></clipPath><clipPath id="clip1_3820_7710"><rect width="23.4467" height="23.4467" fill="white" transform="translate(199.524 49.7283)"></rect></clipPath></defs></svg> 