<?xml version="1.0" encoding="UTF-8"?> <svg xmlns="http://www.w3.org/2000/svg" width="46" height="58" viewBox="0 0 46 58" fill="none"><path d="M3.96387 43.9936L23.2937 53.8298L41.8894 43.9936V5.52979H3.96387V43.9936Z" fill="white"></path><path d="M42.2808 5.67659L3.57227 44.6787L23.6361 54.6128L42.2808 45.0702V5.67659Z" fill="#F2F3F2"></path><path d="M2.69141 18.3511V44.8255L3.37651 45.1681L22.7063 55.0043L23.2935 55.2979L23.8808 55.0043L42.5254 45.1681L43.2106 44.8255V4.25745H2.69141V18.3511ZM3.96375 44.0915V5.52979H41.9382V44.0915L23.2935 53.9277L3.96375 44.0915Z" fill="#DCDEDC"></path><path d="M22.9511 6.16596C23.1469 6.16596 23.3426 6.16596 23.5384 6.21489L22.9511 7.34043C22.0703 7.29149 21.2873 7.9766 21.2384 8.85745C21.1894 9.7383 21.8745 10.5213 22.7554 10.5702H22.9511C23.3426 10.5702 23.7341 10.4234 24.0277 10.1787L24.6639 11.2553C24.1745 11.5979 23.5873 11.7936 22.9511 11.7936C21.3852 11.8426 20.0639 10.6681 20.0149 9.10213C19.966 7.53617 21.1405 6.21489 22.7064 6.16596H22.9511ZM24.9575 8.56383L25.6915 9.78723L24.9575 10.9617L24.2724 9.78723H22.8532L23.5873 8.56383H24.9575ZM23.783 8.1234C23.783 7.92766 23.832 7.73191 23.9298 7.58511C24.0277 7.4383 24.2235 7.29149 24.3703 7.19362L24.4681 7.14468C24.6639 7.04681 24.7128 6.99787 24.7128 6.9C24.7128 6.80213 24.566 6.70426 24.4681 6.70426C24.2724 6.70426 24.1256 6.80213 24.0277 6.99787L23.783 6.75319C23.832 6.65532 23.9298 6.55745 24.0277 6.45957C24.1745 6.3617 24.3213 6.3617 24.4681 6.3617C24.6149 6.3617 24.8107 6.41064 24.9086 6.50851C25.0064 6.60638 25.1043 6.75319 25.1043 6.9C25.1043 7.14468 24.9575 7.34043 24.6639 7.4383L24.5171 7.53617C24.3703 7.63404 24.2724 7.68298 24.2235 7.82979H25.1043V8.17234L23.783 8.1234ZM22.9511 14.2404L27.6001 11.5979V4.25745H18.2532V11.5489L22.9511 14.2404ZM44.1405 31.5638H1.76176L0.195801 34.9894L1.76176 38.4149H44.1405L45.6575 34.9894L44.1405 31.5638Z" fill="#FF492C"></path><path d="M9.34202 29.3617C9.31266 29.3617 9.28819 29.3519 9.26862 29.3323C9.24905 29.3095 9.23926 29.2834 9.23926 29.254V23.3034C9.23926 23.274 9.24905 23.2479 9.26862 23.2251C9.28819 23.2055 9.31266 23.1957 9.34202 23.1957H10.3746C10.4039 23.1957 10.4284 23.2055 10.448 23.2251C10.4708 23.2479 10.4822 23.274 10.4822 23.3034V28.2508C10.4822 28.2802 10.4969 28.2949 10.5263 28.2949H13.4037C13.4331 28.2949 13.4592 28.3047 13.482 28.3243C13.5016 28.3471 13.5114 28.3732 13.5114 28.4025V29.254C13.5114 29.2834 13.5016 29.3095 13.482 29.3323C13.4592 29.3519 13.4331 29.3617 13.4037 29.3617H9.34202ZM18.2044 26.6311C18.2403 26.8529 18.2517 27.1025 18.2386 27.3798C18.2354 27.4516 18.1978 27.4874 18.1261 27.4874H15.4052C15.3693 27.4874 15.3579 27.5021 15.371 27.5315C15.3873 27.6489 15.4183 27.7664 15.4639 27.8838C15.6173 28.2101 15.9288 28.3732 16.3986 28.3732C16.7738 28.3699 17.0707 28.2182 17.2893 27.9181C17.3121 27.8822 17.3382 27.8643 17.3676 27.8643C17.3871 27.8643 17.4083 27.8757 17.4312 27.8985L18.0625 28.5249C18.0918 28.5543 18.1065 28.5804 18.1065 28.6032C18.1065 28.6162 18.0951 28.6407 18.0722 28.6766C17.8798 28.9147 17.6302 29.1007 17.3235 29.2345C17.0201 29.365 16.6857 29.4302 16.3203 29.4302C15.8146 29.4302 15.3873 29.316 15.0382 29.0877C14.6891 28.8593 14.4379 28.5396 14.2846 28.1285C14.1606 27.8349 14.0986 27.4499 14.0986 26.9736C14.0986 26.6506 14.1427 26.3668 14.2307 26.1221C14.3678 25.7045 14.6043 25.3718 14.9403 25.1238C15.2796 24.8791 15.6809 24.7568 16.1442 24.7568C16.7314 24.7568 17.2028 24.9264 17.5584 25.2657C17.914 25.605 18.1293 26.0601 18.2044 26.6311ZM16.1539 25.8285C15.782 25.8285 15.5373 26.0014 15.4199 26.3472C15.3971 26.4255 15.3775 26.5201 15.3612 26.6311C15.3612 26.6604 15.3759 26.6751 15.4052 26.6751H16.9271C16.963 26.6751 16.9744 26.6604 16.9614 26.6311C16.932 26.4614 16.9173 26.3799 16.9173 26.3864C16.8651 26.2102 16.7738 26.0732 16.6433 25.9753C16.5095 25.8774 16.3464 25.8285 16.1539 25.8285ZM20.7686 24.7617C21.1503 24.7617 21.4912 24.8286 21.7914 24.9623C22.0915 25.0928 22.3248 25.2739 22.4912 25.5055C22.6576 25.7339 22.7407 25.9884 22.7407 26.2689V29.254C22.7407 29.2834 22.731 29.3095 22.7114 29.3323C22.6918 29.3519 22.6673 29.3617 22.638 29.3617H21.6054C21.5761 29.3617 21.5516 29.3519 21.532 29.3323C21.5092 29.3095 21.4978 29.2834 21.4978 29.254V28.9653C21.4978 28.949 21.4929 28.9376 21.4831 28.9311C21.47 28.9245 21.4586 28.9294 21.4488 28.9457C21.2009 29.2687 20.8045 29.4302 20.2597 29.4302C19.7997 29.4302 19.4294 29.3193 19.1488 29.0974C18.865 28.8756 18.7231 28.5461 18.7231 28.1089C18.7231 27.6587 18.8829 27.308 19.2027 27.0568C19.5191 26.8089 19.971 26.6849 20.5582 26.6849H21.4537C21.4831 26.6849 21.4978 26.6702 21.4978 26.6408V26.4451C21.4978 26.2526 21.439 26.1009 21.3216 25.99C21.2042 25.8823 21.028 25.8285 20.7931 25.8285C20.6137 25.8285 20.4636 25.8611 20.3429 25.9264C20.2222 25.9916 20.1439 26.083 20.108 26.2004C20.0917 26.2657 20.0542 26.295 19.9954 26.2885L18.9286 26.1466C18.8568 26.1335 18.8242 26.1074 18.8307 26.0683C18.8536 25.8203 18.9515 25.5969 19.1244 25.3979C19.2973 25.1989 19.5273 25.0439 19.8144 24.933C20.0982 24.8188 20.4163 24.7617 20.7686 24.7617ZM20.5925 28.5053C20.8437 28.5053 21.0573 28.4384 21.2335 28.3047C21.4097 28.1709 21.4978 27.998 21.4978 27.786V27.4679C21.4978 27.4385 21.4831 27.4238 21.4537 27.4238H20.8225C20.5582 27.4238 20.351 27.4744 20.201 27.5755C20.0509 27.6734 19.9759 27.8137 19.9759 27.9964C19.9759 28.1562 20.0313 28.2802 20.1422 28.3683C20.2532 28.4596 20.4032 28.5053 20.5925 28.5053ZM26.4256 23.3034C26.4256 23.274 26.4354 23.2479 26.455 23.2251C26.4746 23.2055 26.499 23.1957 26.5284 23.1957H27.561C27.5903 23.1957 27.6148 23.2055 27.6344 23.2251C27.6539 23.2479 27.6637 23.274 27.6637 23.3034V29.254C27.6637 29.2834 27.6539 29.3095 27.6344 29.3323C27.6148 29.3519 27.5903 29.3617 27.561 29.3617H26.5284C26.499 29.3617 26.4746 29.3519 26.455 29.3323C26.4354 29.3095 26.4256 29.2834 26.4256 29.254V28.9653C26.4256 28.949 26.4191 28.9392 26.4061 28.936C26.393 28.9327 26.3816 28.936 26.3718 28.9457C26.1239 29.2687 25.7862 29.4302 25.3588 29.4302C24.9478 29.4302 24.5938 29.316 24.2969 29.0877C24 28.8593 23.7864 28.5461 23.6559 28.1481C23.558 27.8414 23.509 27.4858 23.509 27.0813C23.509 26.6637 23.5612 26.2999 23.6656 25.99C23.8027 25.6116 24.0164 25.313 24.3067 25.0945C24.5971 24.8726 24.9559 24.7617 25.3833 24.7617C25.8074 24.7617 26.1369 24.9085 26.3718 25.2021C26.3816 25.2217 26.393 25.2282 26.4061 25.2217C26.4191 25.2152 26.4256 25.2038 26.4256 25.1874V23.3034ZM26.2397 27.9866C26.3571 27.7713 26.4159 27.4744 26.4159 27.096C26.4159 26.7045 26.3506 26.3962 26.2201 26.1711C26.0864 25.9427 25.8906 25.8285 25.6329 25.8285C25.3556 25.8285 25.1468 25.9427 25.0065 26.1711C24.8597 26.4027 24.7863 26.7143 24.7863 27.1057C24.7863 27.4581 24.8483 27.7517 24.9722 27.9866C25.119 28.2411 25.336 28.3683 25.6231 28.3683C25.8873 28.3683 26.0929 28.2411 26.2397 27.9866ZM32.6063 26.6311C32.6422 26.8529 32.6536 27.1025 32.6405 27.3798C32.6373 27.4516 32.5998 27.4874 32.528 27.4874H29.8071C29.7712 27.4874 29.7598 27.5021 29.7729 27.5315C29.7892 27.6489 29.8202 27.7664 29.8659 27.8838C30.0192 28.2101 30.3307 28.3732 30.8005 28.3732C31.1757 28.3699 31.4726 28.2182 31.6912 27.9181C31.714 27.8822 31.7401 27.8643 31.7695 27.8643C31.789 27.8643 31.8103 27.8757 31.8331 27.8985L32.4644 28.5249C32.4937 28.5543 32.5084 28.5804 32.5084 28.6032C32.5084 28.6162 32.497 28.6407 32.4742 28.6766C32.2817 28.9147 32.0321 29.1007 31.7254 29.2345C31.422 29.365 31.0876 29.4302 30.7222 29.4302C30.2166 29.4302 29.7892 29.316 29.4401 29.0877C29.091 28.8593 28.8398 28.5396 28.6865 28.1285C28.5625 27.8349 28.5005 27.4499 28.5005 26.9736C28.5005 26.6506 28.5446 26.3668 28.6327 26.1221C28.7697 25.7045 29.0062 25.3718 29.3422 25.1238C29.6815 24.8791 30.0828 24.7568 30.5461 24.7568C31.1333 24.7568 31.6047 24.9264 31.9603 25.2657C32.3159 25.605 32.5312 26.0601 32.6063 26.6311ZM30.5559 25.8285C30.1839 25.8285 29.9393 26.0014 29.8218 26.3472C29.799 26.4255 29.7794 26.5201 29.7631 26.6311C29.7631 26.6604 29.7778 26.6751 29.8071 26.6751H31.329C31.3649 26.6751 31.3764 26.6604 31.3633 26.6311C31.3339 26.4614 31.3193 26.3799 31.3193 26.3864C31.2671 26.2102 31.1757 26.0732 31.0452 25.9753C30.9115 25.8774 30.7483 25.8285 30.5559 25.8285ZM35.6648 24.7715C35.8768 24.7715 36.0432 24.8123 36.1639 24.8938C36.2129 24.9199 36.2308 24.964 36.2178 25.026L36.0318 26.034C36.0286 26.1025 35.9878 26.1221 35.9095 26.0928C35.8214 26.0634 35.7186 26.0487 35.6012 26.0487C35.5555 26.0487 35.4919 26.0552 35.4103 26.0683C35.1983 26.0846 35.0188 26.1613 34.872 26.2983C34.7252 26.4386 34.6518 26.6229 34.6518 26.8513V29.254C34.6518 29.2834 34.642 29.3095 34.6225 29.3323C34.5996 29.3519 34.5735 29.3617 34.5442 29.3617H33.5165C33.4871 29.3617 33.461 29.3519 33.4382 29.3323C33.4186 29.3095 33.4088 29.2834 33.4088 29.254V24.9379C33.4088 24.9085 33.4186 24.884 33.4382 24.8645C33.461 24.8449 33.4871 24.8351 33.5165 24.8351H34.5442C34.5735 24.8351 34.5996 24.8449 34.6225 24.8645C34.642 24.884 34.6518 24.9085 34.6518 24.9379V25.2755C34.6518 25.2918 34.6567 25.3033 34.6665 25.3098C34.6795 25.3163 34.6893 25.313 34.6959 25.3C34.9373 24.9477 35.2603 24.7715 35.6648 24.7715Z" fill="#252530"></path><path d="M16.2174 36.937C15.9629 36.937 15.7411 36.8962 15.5518 36.8147C15.3626 36.7331 15.2158 36.6189 15.1114 36.4721C15.0103 36.3253 14.9597 36.1524 14.9597 35.9534V35.8311C14.9597 35.8148 14.9662 35.8001 14.9793 35.787C14.9891 35.7772 15.0021 35.7723 15.0184 35.7723H15.454C15.4703 35.7723 15.485 35.7772 15.498 35.787C15.5078 35.8001 15.5127 35.8148 15.5127 35.8311V35.924C15.5127 36.0741 15.5796 36.1981 15.7133 36.296C15.8471 36.3971 16.0298 36.4477 16.2614 36.4477C16.4604 36.4477 16.6105 36.4053 16.7116 36.3204C16.8128 36.2356 16.8633 36.1263 16.8633 35.9926C16.8633 35.9012 16.8356 35.8229 16.7801 35.7577C16.7247 35.6957 16.6464 35.6386 16.5452 35.5864C16.4409 35.5342 16.2859 35.4689 16.0804 35.3906C15.8487 35.3058 15.6611 35.2259 15.5176 35.1509C15.374 35.0758 15.255 34.9731 15.1604 34.8426C15.0625 34.7153 15.0135 34.5555 15.0135 34.363C15.0135 34.0759 15.1179 33.8492 15.3267 33.6828C15.5355 33.5164 15.8145 33.4332 16.1635 33.4332C16.4082 33.4332 16.6252 33.4756 16.8144 33.5604C17.0004 33.6453 17.1455 33.7643 17.2499 33.9177C17.3543 34.0677 17.4065 34.2423 17.4065 34.4413V34.5245C17.4065 34.5408 17.4 34.5555 17.387 34.5685C17.3772 34.5783 17.3641 34.5832 17.3478 34.5832H16.9074C16.8911 34.5832 16.878 34.5783 16.8682 34.5685C16.8552 34.5555 16.8487 34.5408 16.8487 34.5245V34.4706C16.8487 34.3173 16.7867 34.1884 16.6627 34.084C16.5355 33.9764 16.3609 33.9226 16.1391 33.9226C15.9596 33.9226 15.821 33.9601 15.7231 34.0351C15.622 34.1101 15.5714 34.2162 15.5714 34.3532C15.5714 34.4511 15.5975 34.531 15.6497 34.593C15.7019 34.655 15.7802 34.7104 15.8846 34.7594C15.989 34.8116 16.1505 34.8768 16.3691 34.9551C16.6007 35.0432 16.7867 35.1231 16.927 35.1949C17.064 35.2667 17.1831 35.3662 17.2842 35.4934C17.3821 35.6239 17.431 35.7854 17.431 35.9779C17.431 36.2715 17.3217 36.5048 17.1031 36.6777C16.8878 36.8506 16.5926 36.937 16.2174 36.937ZM19.3787 33.4675C19.5842 33.4675 19.7652 33.5099 19.9218 33.5947C20.0784 33.6795 20.1991 33.7986 20.284 33.9519C20.3721 34.1085 20.4161 34.288 20.4161 34.4902C20.4161 34.6892 20.3721 34.8654 20.284 35.0187C20.1959 35.1721 20.0719 35.2895 19.9121 35.3711C19.7489 35.4559 19.5613 35.4983 19.3493 35.4983H18.5663C18.55 35.4983 18.5418 35.5065 18.5418 35.5228V36.8392C18.5418 36.8555 18.537 36.8685 18.5272 36.8783C18.5141 36.8914 18.4994 36.8979 18.4831 36.8979H18.0329C18.0166 36.8979 18.0035 36.8914 17.9938 36.8783C17.9807 36.8685 17.9742 36.8555 17.9742 36.8392V33.5262C17.9742 33.5099 17.9807 33.4952 17.9938 33.4821C18.0035 33.4723 18.0166 33.4675 18.0329 33.4675H19.3787ZM19.2955 35.0383C19.4618 35.0383 19.5956 34.9894 19.6967 34.8915C19.7979 34.7936 19.8484 34.6648 19.8484 34.5049C19.8484 34.3418 19.7979 34.2096 19.6967 34.1085C19.5956 34.0074 19.4618 33.9568 19.2955 33.9568H18.5663C18.55 33.9568 18.5418 33.965 18.5418 33.9813V35.0138C18.5418 35.0301 18.55 35.0383 18.5663 35.0383H19.2955ZM22.8384 36.8979C22.8058 36.8979 22.783 36.8832 22.7699 36.8538L22.124 35.4445C22.1174 35.4314 22.1077 35.4249 22.0946 35.4249H21.5074C21.4911 35.4249 21.4829 35.4331 21.4829 35.4494V36.8392C21.4829 36.8555 21.4764 36.8685 21.4633 36.8783C21.4535 36.8914 21.4405 36.8979 21.4242 36.8979H20.974C20.9577 36.8979 20.9446 36.8914 20.9348 36.8783C20.9218 36.8685 20.9152 36.8555 20.9152 36.8392V33.5311C20.9152 33.5148 20.9218 33.5017 20.9348 33.4919C20.9446 33.4789 20.9577 33.4723 20.974 33.4723H22.3197C22.5187 33.4723 22.6949 33.5131 22.8482 33.5947C23.0016 33.6795 23.1206 33.797 23.2055 33.947C23.2903 34.1004 23.3327 34.2749 23.3327 34.4706C23.3327 34.6958 23.2756 34.8866 23.1614 35.0432C23.044 35.2031 22.8825 35.314 22.677 35.376C22.6704 35.376 22.6655 35.3792 22.6623 35.3857C22.659 35.3923 22.659 35.3988 22.6623 35.4053L23.3523 36.8294C23.3588 36.8424 23.3621 36.8522 23.3621 36.8587C23.3621 36.8848 23.3441 36.8979 23.3082 36.8979H22.8384ZM21.5074 33.9617C21.4911 33.9617 21.4829 33.9699 21.4829 33.9862V34.96C21.4829 34.9763 21.4911 34.9845 21.5074 34.9845H22.2414C22.398 34.9845 22.5236 34.9372 22.6182 34.8426C22.7161 34.7512 22.765 34.6289 22.765 34.4755C22.765 34.3222 22.7161 34.1982 22.6182 34.1036C22.5236 34.009 22.398 33.9617 22.2414 33.9617H21.5074ZM23.9738 36.8979C23.9574 36.8979 23.9428 36.8914 23.9297 36.8783C23.9199 36.8685 23.915 36.8555 23.915 36.8392V33.5311C23.915 33.5148 23.9199 33.5017 23.9297 33.4919C23.9428 33.4789 23.9574 33.4723 23.9738 33.4723H24.424C24.4403 33.4723 24.4533 33.4789 24.4631 33.4919C24.4762 33.5017 24.4827 33.5148 24.4827 33.5311V36.8392C24.4827 36.8555 24.4762 36.8685 24.4631 36.8783C24.4533 36.8914 24.4403 36.8979 24.424 36.8979H23.9738ZM27.1889 33.5311C27.1889 33.5148 27.1954 33.5017 27.2084 33.4919C27.2182 33.4789 27.2313 33.4723 27.2476 33.4723H27.6978C27.7141 33.4723 27.7288 33.4789 27.7418 33.4919C27.7516 33.5017 27.7565 33.5148 27.7565 33.5311V36.8392C27.7565 36.8555 27.7516 36.8685 27.7418 36.8783C27.7288 36.8914 27.7141 36.8979 27.6978 36.8979H27.2623C27.2296 36.8979 27.2068 36.8848 27.1938 36.8587L25.7844 34.5489C25.7779 34.5392 25.7713 34.5343 25.7648 34.5343C25.7583 34.5375 25.755 34.5457 25.755 34.5587L25.7648 36.8392C25.7648 36.8555 25.7583 36.8685 25.7452 36.8783C25.7355 36.8914 25.7224 36.8979 25.7061 36.8979H25.2559C25.2396 36.8979 25.2265 36.8914 25.2167 36.8783C25.2037 36.8685 25.1972 36.8555 25.1972 36.8392V33.5311C25.1972 33.5148 25.2037 33.5017 25.2167 33.4919C25.2265 33.4789 25.2396 33.4723 25.2559 33.4723H25.6914C25.724 33.4723 25.7469 33.4854 25.7599 33.5115L27.1644 35.8213C27.1709 35.8311 27.1774 35.8343 27.184 35.8311C27.1905 35.8311 27.1938 35.8245 27.1938 35.8115L27.1889 33.5311ZM29.6161 36.937C29.3714 36.937 29.1561 36.8897 28.9701 36.7951C28.7842 36.6972 28.6406 36.5602 28.5395 36.384C28.4384 36.2079 28.3878 36.0056 28.3878 35.7772V34.593C28.3878 34.3614 28.4384 34.1575 28.5395 33.9813C28.6406 33.8084 28.7842 33.673 28.9701 33.5751C29.1561 33.4805 29.3714 33.4332 29.6161 33.4332C29.8575 33.4332 30.0712 33.4805 30.2572 33.5751C30.4399 33.6697 30.5818 33.7986 30.6829 33.9617C30.784 34.1248 30.8346 34.3092 30.8346 34.5147V34.5538C30.8346 34.5701 30.8297 34.5832 30.8199 34.593C30.8069 34.606 30.7922 34.6126 30.7759 34.6126H30.3306C30.3143 34.6126 30.3012 34.606 30.2914 34.593C30.2784 34.5832 30.2718 34.5701 30.2718 34.5538V34.5294C30.2718 34.3532 30.2115 34.208 30.0908 34.0938C29.9733 33.9796 29.8151 33.9226 29.6161 33.9226C29.4171 33.9226 29.2572 33.9829 29.1365 34.1036C29.0158 34.2211 28.9555 34.3777 28.9555 34.5734V35.7968C28.9555 35.9926 29.0191 36.1508 29.1463 36.2715C29.2735 36.3889 29.4383 36.4477 29.6406 36.4477C29.8363 36.4477 29.9913 36.3955 30.1055 36.2911C30.2164 36.1899 30.2718 36.0497 30.2718 35.8702V35.5668C30.2718 35.5505 30.2637 35.5423 30.2474 35.5423H29.6455C29.6292 35.5423 29.6145 35.5358 29.6014 35.5228C29.5916 35.513 29.5867 35.4999 29.5867 35.4836V35.1215C29.5867 35.1052 29.5916 35.0921 29.6014 35.0823C29.6145 35.0693 29.6292 35.0628 29.6455 35.0628H30.7759C30.7922 35.0628 30.8069 35.0693 30.8199 35.0823C30.8297 35.0921 30.8346 35.1052 30.8346 35.1215V35.7479C30.8346 36.1231 30.7253 36.415 30.5067 36.6238C30.2849 36.8326 29.988 36.937 29.6161 36.937Z" fill="white"></path><path d="M16.3888 45.7357C16.379 45.7455 16.3757 45.7553 16.379 45.7651C16.3855 45.7749 16.3953 45.7798 16.4083 45.7798H18.3315C18.3544 45.7798 18.3739 45.7879 18.3902 45.8043C18.4098 45.8206 18.4196 45.8401 18.4196 45.863V46.553C18.4196 46.5758 18.4098 46.5954 18.3902 46.6117C18.3739 46.628 18.3544 46.6362 18.3315 46.6362H15.1409C15.1148 46.6362 15.0936 46.628 15.0773 46.6117C15.061 46.5954 15.0528 46.5758 15.0528 46.553V45.8972C15.0528 45.8548 15.0675 45.8189 15.0968 45.7896C15.3285 45.5645 15.565 45.3182 15.8064 45.0506C16.0478 44.7831 16.1995 44.6167 16.2615 44.5515C16.392 44.3949 16.5258 44.2448 16.6628 44.1013C17.0934 43.625 17.3088 43.271 17.3088 43.0394C17.3088 42.873 17.25 42.736 17.1326 42.6283C17.0151 42.5239 16.8618 42.4717 16.6726 42.4717C16.4834 42.4717 16.33 42.5239 16.2126 42.6283C16.0919 42.736 16.0315 42.8779 16.0315 43.054V43.2302C16.0315 43.2531 16.0234 43.2726 16.0071 43.2889C15.9907 43.3053 15.9712 43.3134 15.9483 43.3134H15.1115C15.0887 43.3134 15.0691 43.3053 15.0528 43.2889C15.0332 43.2726 15.0234 43.2531 15.0234 43.2302V42.8975C15.0397 42.643 15.1213 42.4162 15.2681 42.2172C15.4149 42.0215 15.609 41.8714 15.8505 41.767C16.0951 41.6626 16.3692 41.6104 16.6726 41.6104C17.0086 41.6104 17.3006 41.674 17.5485 41.8013C17.7965 41.9253 17.9873 42.0933 18.1211 42.3053C18.2581 42.5206 18.3266 42.7572 18.3266 43.0149C18.3266 43.2139 18.2761 43.4178 18.1749 43.6266C18.0771 43.8354 17.9286 44.0605 17.7296 44.3019C17.5828 44.4846 17.4246 44.6673 17.2549 44.85C17.0853 45.0294 16.8324 45.2888 16.4964 45.6281L16.3888 45.7357ZM20.7245 46.7145C20.2025 46.7145 19.7915 46.5693 19.4913 46.2789C19.1879 45.9886 19.0362 45.5922 19.0362 45.0898V43.2155C19.0362 42.7229 19.1879 42.3331 19.4913 42.046C19.7915 41.7556 20.2025 41.6104 20.7245 41.6104C21.2432 41.6104 21.6559 41.7556 21.9626 42.046C22.266 42.3331 22.4177 42.7229 22.4177 43.2155V45.0898C22.4177 45.5922 22.266 45.9886 21.9626 46.2789C21.6559 46.5693 21.2432 46.7145 20.7245 46.7145ZM20.7245 45.8581C20.9366 45.8581 21.1046 45.7928 21.2285 45.6623C21.3558 45.5318 21.4194 45.3573 21.4194 45.1387V43.1862C21.4194 42.9709 21.3558 42.7979 21.2285 42.6675C21.1046 42.537 20.9366 42.4717 20.7245 42.4717C20.5157 42.4717 20.3493 42.537 20.2254 42.6675C20.0981 42.7979 20.0345 42.9709 20.0345 43.1862V45.1387C20.0345 45.3573 20.0981 45.5318 20.2254 45.6623C20.3493 45.7928 20.5157 45.8581 20.7245 45.8581ZM24.4045 45.7357C24.3947 45.7455 24.3931 45.7553 24.3996 45.7651C24.4029 45.7749 24.4127 45.7798 24.429 45.7798H26.3522C26.375 45.7798 26.3946 45.7879 26.4109 45.8043C26.4272 45.8206 26.4354 45.8401 26.4354 45.863V46.553C26.4354 46.5758 26.4272 46.5954 26.4109 46.6117C26.3946 46.628 26.375 46.6362 26.3522 46.6362H23.1566C23.1338 46.6362 23.1142 46.628 23.0979 46.6117C23.0816 46.5954 23.0734 46.5758 23.0734 46.553V45.8972C23.0734 45.8548 23.0865 45.8189 23.1126 45.7896C23.3475 45.5645 23.584 45.3182 23.8222 45.0506C24.0636 44.7831 24.2153 44.6167 24.2773 44.5515C24.411 44.3949 24.5464 44.2448 24.6834 44.1013C25.1141 43.625 25.3294 43.271 25.3294 43.0394C25.3294 42.873 25.2707 42.736 25.1532 42.6283C25.0325 42.5239 24.8776 42.4717 24.6883 42.4717C24.4991 42.4717 24.3458 42.5239 24.2283 42.6283C24.1109 42.736 24.0522 42.8779 24.0522 43.054V43.2302C24.0522 43.2531 24.044 43.2726 24.0277 43.2889C24.0114 43.3053 23.9902 43.3134 23.9641 43.3134H23.1273C23.1044 43.3134 23.0849 43.3053 23.0685 43.2889C23.0522 43.2726 23.0441 43.2531 23.0441 43.2302V42.8975C23.0571 42.643 23.1371 42.4162 23.2839 42.2172C23.4307 42.0215 23.6264 41.8714 23.8711 41.767C24.1158 41.6626 24.3882 41.6104 24.6883 41.6104C25.0244 41.6104 25.3163 41.674 25.5643 41.8013C25.8155 41.9253 26.008 42.0933 26.1417 42.3053C26.2755 42.5206 26.3424 42.7572 26.3424 43.0149C26.3424 43.2139 26.2934 43.4178 26.1956 43.6266C26.0944 43.8354 25.9444 44.0605 25.7454 44.3019C25.5985 44.4846 25.4403 44.6673 25.2707 44.85C25.101 45.0294 24.8482 45.2888 24.5122 45.6281L24.4045 45.7357ZM30.5998 44.4732C30.6227 44.4732 30.6439 44.4814 30.6634 44.4977C30.6797 44.514 30.6879 44.5336 30.6879 44.5564V45.2757C30.6879 45.2986 30.6797 45.3182 30.6634 45.3345C30.6439 45.3508 30.6227 45.3589 30.5998 45.3589H30.2964C30.2736 45.3589 30.2622 45.3704 30.2622 45.3932V46.553C30.2622 46.5758 30.254 46.5954 30.2377 46.6117C30.2181 46.628 30.1969 46.6362 30.1741 46.6362H29.3471C29.321 46.6362 29.2997 46.628 29.2834 46.6117C29.2671 46.5954 29.259 46.5758 29.259 46.553V45.3932C29.259 45.3704 29.2476 45.3589 29.2247 45.3589H27.0471C27.0242 45.3589 27.003 45.3508 26.9834 45.3345C26.9671 45.3182 26.959 45.2986 26.959 45.2757V44.7081C26.959 44.6787 26.9671 44.6428 26.9834 44.6004L28.2607 41.7328C28.2802 41.6904 28.3129 41.6692 28.3585 41.6692H29.2443C29.2769 41.6692 29.2997 41.6773 29.3128 41.6936C29.3258 41.7099 29.3242 41.7344 29.3079 41.767L28.1237 44.4292C28.1204 44.4389 28.1204 44.4487 28.1237 44.4585C28.1302 44.4683 28.1383 44.4732 28.1481 44.4732H29.2247C29.2476 44.4732 29.259 44.4601 29.259 44.434V43.5581C29.259 43.532 29.2671 43.5108 29.2834 43.4945C29.2997 43.4782 29.321 43.47 29.3471 43.47H30.1741C30.1969 43.47 30.2181 43.4782 30.2377 43.4945C30.254 43.5108 30.2622 43.532 30.2622 43.5581V44.434C30.2622 44.4601 30.2736 44.4732 30.2964 44.4732H30.5998Z" fill="#252530"></path></svg> 