<?xml version="1.0" encoding="UTF-8"?> <svg xmlns="http://www.w3.org/2000/svg" width="288" height="32" viewBox="0 0 288 32" fill="none"><path d="M0 21.0177L2.12829 18.8074C3.20923 20.2029 4.29016 20.9932 5.83343 20.9932C7.56913 20.9932 8.75079 19.8343 8.75079 17.3602V5.3078H12.0879V17.4663C12.0879 19.6494 11.4318 21.2816 10.3548 22.3602C9.2777 23.4388 7.72539 23.9846 5.88767 23.9846C3.04909 23.9924 1.21008 22.6758 0 21.0177Z" fill="#00022B"></path><path d="M15.6428 18.6781V9.83569H18.8236V17.7314C18.8236 19.8964 19.9046 21.0992 21.7939 21.0992C23.6833 21.0992 24.9205 19.8356 24.9205 17.6706V9.83699H28.1259V23.7337H24.9205V21.5687C24.0191 22.884 22.7406 24.0156 20.5852 24.0156C17.4573 24.0234 15.6441 21.9166 15.6441 18.6807L15.6428 18.6781Z" fill="#00022B"></path><path d="M31.7379 9.83439H34.9187V11.9658C35.8201 10.675 37.0986 9.5434 39.254 9.5434C42.3806 9.5434 44.1951 11.6489 44.1951 14.8602V23.7285H41.0143V15.8354C41.0143 13.6704 39.9333 12.4391 38.044 12.4391C36.1546 12.4391 34.9174 13.7299 34.9174 15.8884V23.7298H31.7366V9.83439H31.7379Z" fill="#00022B"></path><path d="M47.6384 26.3347L48.8227 23.9395C50.3207 24.8617 51.8705 25.4139 53.7624 25.4139C56.601 25.4139 58.1507 23.9395 58.1507 21.1498V20.0673C56.9962 21.5689 55.5498 22.6203 53.2639 22.6203C50.0056 22.6203 46.9565 20.1979 46.9565 16.124V16.0684C46.9565 11.9621 50.0315 9.54102 53.2639 9.54102C55.6066 9.54102 57.0479 10.6235 58.1301 11.9104V9.8346H61.3057V20.8886C61.3057 23.2347 60.7026 24.9677 59.5455 26.1226C58.2838 27.3862 56.3401 27.9902 53.8438 27.9902C51.6638 28.0148 49.5188 27.4431 47.641 26.3347H47.6384ZM58.1766 16.0968V16.0451C58.1766 13.7818 56.3117 12.2298 54.1034 12.2298C51.895 12.2298 50.1606 13.7572 50.1606 16.0451V16.0968C50.1606 18.3614 51.9208 19.9134 54.1034 19.9134C56.2859 19.9134 58.1766 18.3614 58.1766 16.0968Z" fill="#00022B"></path><path d="M65.1277 4.51721H68.3008V23.7281H65.1277V4.51721Z" fill="#00022B"></path><path d="M71.5117 16.8356V16.7903C71.5117 12.8198 74.3232 9.55164 78.2905 9.55164C82.7059 9.55164 84.9401 13.0255 84.9401 17.027C84.9401 17.3154 84.913 17.6064 84.8885 17.9297H74.6925C75.0335 20.1931 76.6374 21.4566 78.6857 21.4566C80.2367 21.4566 81.3396 20.8772 82.445 19.7986L84.3099 21.4566C82.9965 23.0358 81.1833 24.0614 78.634 24.0614C74.6138 24.0471 71.5117 21.1229 71.5117 16.8369V16.8356ZM81.7838 15.8087C81.5772 13.7562 80.3697 12.1512 78.2659 12.1512C76.321 12.1512 74.9534 13.6515 74.6615 15.8087H81.7838Z" fill="#00022B"></path><path d="M90.3589 21.0459L92.3038 18.7308C94.064 20.2582 95.8527 21.1222 98.1114 21.1222C100.108 21.1222 101.37 20.1742 101.37 18.8045V18.7528C101.37 17.4375 100.635 16.7262 97.2255 15.9373C93.3098 14.9893 91.0989 13.8317 91.0989 10.4368V10.385C91.0989 7.22676 93.7283 5.04364 97.3804 5.04364C100.06 5.04364 102.188 5.85972 104.048 7.35868L102.316 9.80951C100.661 8.5731 99.0064 7.9148 97.3223 7.9148C95.4304 7.9148 94.3275 8.88997 94.3275 10.1005V10.1522C94.3275 11.5723 95.1695 12.2047 98.7158 13.0402C102.607 13.9882 104.603 15.3863 104.603 18.4346V18.4864C104.603 21.9357 101.9 23.9869 98.0326 23.9869C95.1979 24.0024 92.4601 22.9535 90.3589 21.0471V21.0459Z" fill="#00022B"></path><path d="M106.202 16.8608V16.809C106.202 12.8618 109.249 9.54578 113.429 9.54578C116.031 9.54578 117.659 10.5209 118.974 11.941L116.977 14.0737C116.004 13.0468 114.98 12.3355 113.403 12.3355C111.091 12.3355 109.382 14.3349 109.382 16.7573V16.809C109.382 19.2832 111.091 21.2581 113.527 21.2581C115.025 21.2581 116.129 20.5739 117.131 19.547L119.05 21.4417C117.683 22.9691 116.08 24.0464 113.374 24.0464C109.251 24.0464 106.204 20.8106 106.204 16.8621L106.202 16.8608Z" fill="#00022B"></path><path d="M137.245 18.6783V9.83594H140.423V17.7316C140.423 19.8967 141.504 21.0994 143.393 21.0994C145.283 21.0994 146.52 19.8359 146.52 17.6709V9.83723H149.725V23.7339H146.521V21.5689C145.62 22.8842 144.341 24.0159 142.186 24.0159C139.058 24.0236 137.245 21.9168 137.245 18.6809V18.6783Z" fill="#00022B"></path><path d="M153.991 19.8884V12.5721H152.231V9.83672H153.991V6.02014H157.172V9.83672H160.904V12.5721H157.172V19.3879C157.172 20.6256 157.802 21.1261 158.88 21.1261C159.565 21.1287 160.242 20.9657 160.85 20.6514V23.2575C159.978 23.7515 158.988 23.9973 157.987 23.9688C155.648 23.9688 153.991 22.9419 153.991 19.8884Z" fill="#00022B"></path><path d="M120.276 16.8608V16.809C120.276 12.8386 123.43 9.54578 127.686 9.54578C131.943 9.54578 135.075 12.783 135.075 16.7651V16.8168C135.075 20.7653 131.921 24.0542 127.637 24.0542C123.403 24.0465 120.276 20.8106 120.276 16.8621V16.8608ZM131.893 16.8608V16.809C131.893 14.3621 130.132 12.3355 127.635 12.3355C125.079 12.3355 123.457 14.3349 123.457 16.7573V16.809C123.457 19.2314 125.22 21.2581 127.688 21.2581C130.156 21.2581 131.891 19.2573 131.891 16.8621L131.893 16.8608Z" fill="#00022B"></path><path d="M127.674 13.4452C128.897 13.7595 129.883 15.1976 129.883 16.813C129.883 18.2706 129.092 19.6247 128.069 20.1433C129.905 19.8497 131.156 18.1205 130.861 16.2814C130.608 14.6971 129.275 13.5111 127.674 13.4452Z" fill="#00022B"></path><path fill-rule="evenodd" clip-rule="evenodd" d="M173.928 0H288V31.6238H173.928V0ZM190.005 21.4354C188.903 21.4354 187.905 21.196 187.011 20.7174C186.127 20.2283 185.431 19.5572 184.922 18.704C184.423 17.8507 184.173 16.8882 184.173 15.8165C184.173 14.7447 184.428 13.7822 184.937 12.929C185.447 12.0758 186.143 11.4098 187.027 10.9312C187.921 10.4421 188.919 10.1976 190.021 10.1976C190.915 10.1976 191.731 10.3537 192.469 10.6658C193.207 10.978 193.831 11.4306 194.34 12.0237L193.03 13.2568C192.24 12.4035 191.268 11.9769 190.114 11.9769C189.366 11.9769 188.695 12.1434 188.103 12.4764C187.51 12.7989 187.047 13.2516 186.715 13.8343C186.382 14.417 186.216 15.0777 186.216 15.8165C186.216 16.5553 186.382 17.216 186.715 17.7987C187.047 18.3814 187.51 18.8392 188.103 19.1722C188.695 19.4948 189.366 19.656 190.114 19.656C191.268 19.656 192.24 19.2242 193.03 18.3606L194.34 19.6092C193.831 20.2023 193.202 20.655 192.453 20.9671C191.715 21.2793 190.899 21.4354 190.005 21.4354ZM207.041 21.4354C205.929 21.4354 204.925 21.196 204.031 20.7174C203.137 20.2283 202.436 19.5572 201.926 18.704C201.417 17.8403 201.162 16.8778 201.162 15.8165C201.162 14.7551 201.417 13.7978 201.926 12.9446C202.436 12.081 203.137 11.4098 204.031 10.9312C204.925 10.4421 205.929 10.1976 207.041 10.1976C208.153 10.1976 209.156 10.4421 210.05 10.9312C210.944 11.4098 211.646 12.0758 212.155 12.929C212.665 13.7822 212.92 14.7447 212.92 15.8165C212.92 16.8882 212.665 17.8507 212.155 18.704C211.646 19.5572 210.944 20.2283 210.05 20.7174C209.156 21.196 208.153 21.4354 207.041 21.4354ZM207.041 19.656C207.769 19.656 208.423 19.4948 209.006 19.1722C209.588 18.8392 210.045 18.3814 210.378 17.7987C210.71 17.2056 210.877 16.5449 210.877 15.8165C210.877 15.0881 210.71 14.4326 210.378 13.8499C210.045 13.2568 209.588 12.7989 209.006 12.4764C208.423 12.1434 207.769 11.9769 207.041 11.9769C206.313 11.9769 205.658 12.1434 205.076 12.4764C204.494 12.7989 204.036 13.2568 203.704 13.8499C203.371 14.4326 203.205 15.0881 203.205 15.8165C203.205 16.5449 203.371 17.2056 203.704 17.7987C204.036 18.3814 204.494 18.8392 205.076 19.1722C205.658 19.4948 206.313 19.656 207.041 19.656ZM230.125 16.5969C229.772 16.1286 229.293 15.7957 228.691 15.598C229.127 15.3691 229.47 15.0465 229.72 14.6303C229.969 14.2141 230.094 13.7354 230.094 13.1943C230.094 12.3099 229.746 11.6179 229.049 11.1185C228.353 10.6086 227.36 10.3537 226.071 10.3537H220.956V21.2793H226.383C227.776 21.2793 228.836 21.0243 229.564 20.5145C230.291 19.9942 230.655 19.2606 230.655 18.3138C230.655 17.627 230.479 17.0547 230.125 16.5969ZM222.983 14.958V11.9457H225.853C226.559 11.9457 227.1 12.0758 227.474 12.3359C227.859 12.5856 228.051 12.9602 228.051 13.4597C228.051 13.9487 227.859 14.3233 227.474 14.5835C227.1 14.8332 226.559 14.958 225.853 14.958H222.983ZM228.613 18.1109C228.613 19.1618 227.828 19.6873 226.258 19.6873H222.983V16.5344H226.258C227.828 16.5344 228.613 17.0599 228.613 18.1109ZM240.328 18.7508L239.252 21.2793H237.163L242.075 10.3537H244.071L248.998 21.2793H246.878L245.786 18.7508H240.328ZM245.116 17.1588L243.057 12.3827L241.014 17.1588H245.116ZM258.302 10.3537H256.274V21.2793H264.009V19.5624H258.302V10.3537ZM272.691 12.0706H269.073V10.3537H278.336V12.0706H274.718V21.2793H272.691V12.0706ZM208.599 15.855C208.599 14.653 207.866 13.582 206.955 13.3486C208.147 13.3974 209.138 14.2805 209.326 15.459C209.545 16.8275 208.615 18.1143 207.248 18.3327C208.01 17.9478 208.599 16.94 208.599 15.855ZM206.955 13.3486C206.955 13.3486 206.955 13.3486 206.955 13.3485H206.954C206.954 13.3486 206.955 13.3486 206.955 13.3486Z" fill="#042BDB"></path></svg> 